<svg width="1500" height="500" viewBox="0 0 1500 500" fill="none" xmlns="http://www.w3.org/2000/svg">
<rect width="1500" height="500" fill="#29A3D0"/>
<rect width="1500" height="500" fill="black" fill-opacity="0.8" style="mix-blend-mode:darken"/>
<line x1="83.1388" y1="10.3155" x2="83.1388" y2="23.665" stroke="white" stroke-opacity="0.2" stroke-width="3.64078"/>
<rect x="34.9775" y="81.4481" width="14.5631" height="14.5643" transform="rotate(50 34.9775 81.4481)" stroke="white" stroke-opacity="0.2" stroke-width="3.64078"/>
<line x1="10.1569" y1="169.221" x2="23.4556" y2="168.057" stroke="white" stroke-opacity="0.2" stroke-width="3.64078"/>
<circle cx="164.753" cy="36.1044" r="11.8325" stroke="white" stroke-opacity="0.2" stroke-width="3.64078"/>
<line x1="264.953" y1="60.3649" x2="285.584" y2="73.7144" stroke="white" stroke-opacity="0.2" stroke-width="3.64078"/>
<circle cx="181.44" cy="125" r="3.03398" stroke="white" stroke-opacity="0.2" stroke-width="3.64078"/>
<path d="M109.941 198.652L92.4382 215.175L93.8449 191.147L109.941 198.652Z" stroke="white" stroke-opacity="0.2" stroke-width="3.64078"/>
<line x1="118.251" y1="301.976" x2="136.844" y2="286.374" stroke="white" stroke-opacity="0.2" stroke-width="3.64078"/>
<rect x="54.238" y="340.135" width="9.70874" height="26.699" transform="rotate(-8 54.238 340.135)" stroke="white" stroke-opacity="0.2" stroke-width="3.64078"/>
<circle cx="24.2796" cy="457.524" r="1.82039" stroke="white" stroke-opacity="0.2" stroke-width="3.64078"/>
<rect x="211.701" y="231.663" width="6.06796" height="6.06796" transform="rotate(18 211.701 231.663)" stroke="white" stroke-opacity="0.2" stroke-width="3.64078"/>
<path d="M231.197 304.005V329.49H205.712" stroke="white" stroke-opacity="0.2" stroke-width="3.64078"/>
<path d="M160.127 417.835L158.608 412.748L163.917 412.714L165.437 417.801L160.127 417.835Z" stroke="white" stroke-opacity="0.2" stroke-width="3.64078"/>
<path d="M276.014 166.766L284.937 151.255L296.89 164.572L287.967 180.083L276.014 166.766Z" stroke="white" stroke-opacity="0.2" stroke-width="3.64078"/>
<path d="M412.214 58.8592L426.585 35.0564V58.8592H412.214Z" stroke="white" stroke-opacity="0.2" stroke-width="3.64078"/>
<line x1="398.655" y1="130.815" x2="402.033" y2="154.85" stroke="white" stroke-opacity="0.2" stroke-width="3.64078"/>
<path d="M361.715 226.898L360.332 229.732L358.569 227.118L361.715 226.898Z" stroke="white" stroke-opacity="0.2" stroke-width="3.64078"/>
<path d="M477.816 212.86C475.524 206.562 468.56 203.315 462.261 205.607C455.963 207.899 452.716 214.864 455.008 221.162" stroke="white" stroke-opacity="0.2" stroke-width="3.64078"/>
<path d="M356.537 302.809L368.809 300.645L376.819 310.191L372.557 321.901L360.285 324.065L352.275 314.519L356.537 302.809Z" stroke="white" stroke-opacity="0.2" stroke-width="3.64078"/>
<path d="M297.312 363.612L297.686 361.533L298.992 363.194L297.312 363.612Z" stroke="white" stroke-opacity="0.2" stroke-width="3.64078"/>
<path d="M293.74 439.501L286.466 452.432L277.056 440.961L293.74 439.501Z" stroke="white" stroke-opacity="0.2" stroke-width="3.64078"/>
<line x1="396.273" y1="393.086" x2="414.469" y2="410.053" stroke="white" stroke-opacity="0.2" stroke-width="3.64078"/>
<circle cx="439.328" cy="445.388" r="6.67476" stroke="white" stroke-opacity="0.2" stroke-width="3.64078"/>
<path d="M467.848 310.073L461.78 311.286L461.173 324.029L464.207 323.422L463.6 336.165L469.668 318.568L466.027 319.175L467.848 310.073Z" fill="white" fill-opacity="0.2"/>
<line x1="583.139" y1="10.3155" x2="583.139" y2="23.665" stroke="white" stroke-opacity="0.2" stroke-width="3.64078"/>
<rect x="534.978" y="81.4481" width="14.5631" height="14.5643" transform="rotate(50 534.978 81.4481)" stroke="white" stroke-opacity="0.2" stroke-width="3.64078"/>
<line x1="510.157" y1="169.221" x2="523.456" y2="168.057" stroke="white" stroke-opacity="0.2" stroke-width="3.64078"/>
<circle cx="664.753" cy="36.1044" r="11.8325" stroke="white" stroke-opacity="0.2" stroke-width="3.64078"/>
<line x1="764.953" y1="60.3649" x2="785.584" y2="73.7144" stroke="white" stroke-opacity="0.2" stroke-width="3.64078"/>
<circle cx="681.44" cy="125" r="3.03398" stroke="white" stroke-opacity="0.2" stroke-width="3.64078"/>
<path d="M609.941 198.652L592.438 215.175L593.845 191.147L609.941 198.652Z" stroke="white" stroke-opacity="0.2" stroke-width="3.64078"/>
<line x1="618.251" y1="301.976" x2="636.844" y2="286.374" stroke="white" stroke-opacity="0.2" stroke-width="3.64078"/>
<rect x="554.238" y="340.135" width="9.70874" height="26.699" transform="rotate(-8 554.238 340.135)" stroke="white" stroke-opacity="0.2" stroke-width="3.64078"/>
<circle cx="524.28" cy="457.524" r="1.82039" stroke="white" stroke-opacity="0.2" stroke-width="3.64078"/>
<rect x="711.701" y="231.663" width="6.06796" height="6.06796" transform="rotate(18 711.701 231.663)" stroke="white" stroke-opacity="0.2" stroke-width="3.64078"/>
<path d="M731.197 304.005V329.49H705.712" stroke="white" stroke-opacity="0.2" stroke-width="3.64078"/>
<path d="M660.127 417.835L658.608 412.748L663.917 412.714L665.437 417.801L660.127 417.835Z" stroke="white" stroke-opacity="0.2" stroke-width="3.64078"/>
<path d="M776.014 166.766L784.937 151.255L796.89 164.572L787.967 180.083L776.014 166.766Z" stroke="white" stroke-opacity="0.2" stroke-width="3.64078"/>
<path d="M912.214 58.8592L926.585 35.0564V58.8592H912.214Z" stroke="white" stroke-opacity="0.2" stroke-width="3.64078"/>
<line x1="898.655" y1="130.815" x2="902.033" y2="154.85" stroke="white" stroke-opacity="0.2" stroke-width="3.64078"/>
<path d="M861.715 226.898L860.332 229.732L858.569 227.118L861.715 226.898Z" stroke="white" stroke-opacity="0.2" stroke-width="3.64078"/>
<path d="M977.816 212.86C975.524 206.562 968.559 203.315 962.261 205.607C955.963 207.899 952.716 214.864 955.008 221.162" stroke="white" stroke-opacity="0.2" stroke-width="3.64078"/>
<path d="M856.537 302.809L868.809 300.645L876.819 310.191L872.557 321.901L860.285 324.065L852.275 314.519L856.537 302.809Z" stroke="white" stroke-opacity="0.2" stroke-width="3.64078"/>
<path d="M797.312 363.612L797.686 361.533L798.992 363.194L797.312 363.612Z" stroke="white" stroke-opacity="0.2" stroke-width="3.64078"/>
<path d="M793.74 439.501L786.466 452.432L777.056 440.961L793.74 439.501Z" stroke="white" stroke-opacity="0.2" stroke-width="3.64078"/>
<line x1="896.273" y1="393.086" x2="914.469" y2="410.053" stroke="white" stroke-opacity="0.2" stroke-width="3.64078"/>
<circle cx="939.328" cy="445.388" r="6.67476" stroke="white" stroke-opacity="0.2" stroke-width="3.64078"/>
<path d="M967.847 310.073L961.78 311.286L961.173 324.029L964.207 323.422L963.6 336.165L969.668 318.568L966.027 319.175L967.847 310.073Z" fill="white" fill-opacity="0.2"/>
<line x1="1083.14" y1="10.3155" x2="1083.14" y2="23.665" stroke="white" stroke-opacity="0.2" stroke-width="3.64078"/>
<rect x="1034.98" y="81.4481" width="14.5631" height="14.5643" transform="rotate(50 1034.98 81.4481)" stroke="white" stroke-opacity="0.2" stroke-width="3.64078"/>
<line x1="1010.16" y1="169.221" x2="1023.46" y2="168.057" stroke="white" stroke-opacity="0.2" stroke-width="3.64078"/>
<circle cx="1164.75" cy="36.1044" r="11.8325" stroke="white" stroke-opacity="0.2" stroke-width="3.64078"/>
<line x1="1264.95" y1="60.3649" x2="1285.58" y2="73.7144" stroke="white" stroke-opacity="0.2" stroke-width="3.64078"/>
<circle cx="1181.44" cy="125" r="3.03398" stroke="white" stroke-opacity="0.2" stroke-width="3.64078"/>
<path d="M1109.94 198.652L1092.44 215.175L1093.84 191.147L1109.94 198.652Z" stroke="white" stroke-opacity="0.2" stroke-width="3.64078"/>
<line x1="1118.25" y1="301.976" x2="1136.84" y2="286.374" stroke="white" stroke-opacity="0.2" stroke-width="3.64078"/>
<rect x="1054.24" y="340.135" width="9.70874" height="26.699" transform="rotate(-8 1054.24 340.135)" stroke="white" stroke-opacity="0.2" stroke-width="3.64078"/>
<circle cx="1024.28" cy="457.524" r="1.82039" stroke="white" stroke-opacity="0.2" stroke-width="3.64078"/>
<rect x="1211.7" y="231.663" width="6.06796" height="6.06796" transform="rotate(18 1211.7 231.663)" stroke="white" stroke-opacity="0.2" stroke-width="3.64078"/>
<path d="M1231.2 304.005V329.49H1205.71" stroke="white" stroke-opacity="0.2" stroke-width="3.64078"/>
<path d="M1160.13 417.835L1158.61 412.748L1163.92 412.714L1165.44 417.801L1160.13 417.835Z" stroke="white" stroke-opacity="0.2" stroke-width="3.64078"/>
<path d="M1276.01 166.766L1284.94 151.255L1296.89 164.572L1287.97 180.083L1276.01 166.766Z" stroke="white" stroke-opacity="0.2" stroke-width="3.64078"/>
<path d="M1412.21 58.8592L1426.59 35.0564V58.8592H1412.21Z" stroke="white" stroke-opacity="0.2" stroke-width="3.64078"/>
<line x1="1398.65" y1="130.815" x2="1402.03" y2="154.85" stroke="white" stroke-opacity="0.2" stroke-width="3.64078"/>
<path d="M1361.71 226.898L1360.33 229.732L1358.57 227.118L1361.71 226.898Z" stroke="white" stroke-opacity="0.2" stroke-width="3.64078"/>
<path d="M1477.82 212.86C1475.52 206.562 1468.56 203.315 1462.26 205.607C1455.96 207.899 1452.72 214.864 1455.01 221.162" stroke="white" stroke-opacity="0.2" stroke-width="3.64078"/>
<path d="M1356.54 302.809L1368.81 300.645L1376.82 310.191L1372.56 321.901L1360.29 324.065L1352.28 314.519L1356.54 302.809Z" stroke="white" stroke-opacity="0.2" stroke-width="3.64078"/>
<path d="M1297.31 363.612L1297.69 361.533L1298.99 363.194L1297.31 363.612Z" stroke="white" stroke-opacity="0.2" stroke-width="3.64078"/>
<path d="M1293.74 439.501L1286.47 452.432L1277.06 440.961L1293.74 439.501Z" stroke="white" stroke-opacity="0.2" stroke-width="3.64078"/>
<line x1="1396.27" y1="393.086" x2="1414.47" y2="410.053" stroke="white" stroke-opacity="0.2" stroke-width="3.64078"/>
<circle cx="1439.33" cy="445.388" r="6.67476" stroke="white" stroke-opacity="0.2" stroke-width="3.64078"/>
<path d="M1467.85 310.073L1461.78 311.286L1461.17 324.029L1464.21 323.422L1463.6 336.165L1469.67 318.568L1466.03 319.175L1467.85 310.073Z" fill="white" fill-opacity="0.2"/>
<path d="M381.742 297.934H478.858C479.281 297.934 479.682 298.012 480.105 298.238C480.548 298.475 480.91 298.836 481.146 299.279C481.373 299.702 481.45 300.103 481.45 300.526V340.234H379.15V300.526C379.15 300.103 379.227 299.702 379.454 299.279C379.69 298.836 380.052 298.475 380.495 298.238C380.918 298.012 381.319 297.934 381.742 297.934Z" fill="#359DC4" stroke="black" stroke-width="4.82"/>
<path d="M413.8 285.166H394.3C394.217 285.166 394.15 285.233 394.15 285.316V297.316C394.15 297.398 394.217 297.466 394.3 297.466H413.8C413.883 297.466 413.95 297.398 413.95 297.316V285.316C413.95 285.233 413.883 285.166 413.8 285.166Z" fill="#359DC4" stroke="black" stroke-width="4.82"/>
<path d="M466.3 285.166H446.8C446.717 285.166 446.65 285.233 446.65 285.316V297.316C446.65 297.398 446.717 297.466 446.8 297.466H466.3C466.383 297.466 466.45 297.398 466.45 297.316V285.316C466.45 285.233 466.383 285.166 466.3 285.166Z" fill="#359DC4" stroke="black" stroke-width="4.82"/>
<path d="M351.25 285.166H331.75C331.667 285.166 331.6 285.233 331.6 285.316V297.316C331.6 297.398 331.667 297.466 331.75 297.466H351.25C351.333 297.466 351.4 297.398 351.4 297.316V285.316C351.4 285.233 351.333 285.166 351.25 285.166Z" fill="#D56FAC" stroke="black" stroke-width="4.82"/>
<path d="M317.242 297.934H365.608C366.031 297.934 366.432 298.012 366.855 298.238C367.298 298.475 367.66 298.836 367.896 299.279C368.123 299.702 368.2 300.103 368.2 300.526V340.234H314.65V300.526C314.65 300.103 314.727 299.702 314.954 299.279C315.19 298.836 315.552 298.475 315.995 298.238C316.418 298.012 316.819 297.934 317.242 297.934Z" fill="#D56FAC" stroke="black" stroke-width="4.82"/>
<path d="M317.242 236.134H414.358C414.781 236.134 415.182 236.212 415.605 236.438C416.048 236.675 416.41 237.036 416.646 237.479C416.873 237.902 416.95 238.303 416.95 238.726V278.434H314.65V238.726C314.65 238.303 314.727 237.902 314.954 237.479C315.19 237.036 315.552 236.675 315.995 236.438C316.418 236.212 316.819 236.134 317.242 236.134Z" fill="#967ADC" stroke="black" stroke-width="4.82"/>
<path d="M349.3 223.384H329.8C329.717 223.384 329.65 223.451 329.65 223.534V235.534C329.65 235.617 329.717 235.684 329.8 235.684H349.3C349.383 235.684 349.45 235.617 349.45 235.534V223.534C349.45 223.451 349.383 223.384 349.3 223.384Z" fill="#967ADC" stroke="black" stroke-width="4.82"/>
<path d="M401.8 223.384H382.3C382.217 223.384 382.15 223.451 382.15 223.534V235.534C382.15 235.617 382.217 235.684 382.3 235.684H401.8C401.883 235.684 401.95 235.617 401.95 235.534V223.534C401.95 223.451 401.883 223.384 401.8 223.384Z" fill="#967ADC" stroke="black" stroke-width="4.82"/>
<path d="M402.146 163.209L485.914 211.312C486.279 211.521 486.585 211.788 486.835 212.196C487.097 212.623 487.225 213.119 487.204 213.625C487.184 214.108 487.047 214.499 486.832 214.87L466.645 249.708L378.405 199.037L398.592 164.199C398.807 163.828 399.078 163.514 399.488 163.255C399.917 162.984 400.413 162.846 400.915 162.858C401.395 162.869 401.781 162.999 402.146 163.209Z" fill="#4FC0E9" stroke="black" stroke-width="4.82"/>
<path d="M435.785 168.373L418.99 158.736C418.919 158.695 418.827 158.721 418.785 158.793L412.693 169.298C412.651 169.37 412.675 169.462 412.746 169.503L429.541 179.14C429.612 179.181 429.704 179.156 429.746 179.083L435.838 168.579C435.88 168.506 435.856 168.414 435.785 168.373Z" fill="#4FC0E9" stroke="black" stroke-width="4.82"/>
<path d="M481.251 194.623L464.456 184.986C464.385 184.945 464.293 184.971 464.251 185.043L458.159 195.548C458.117 195.62 458.141 195.712 458.212 195.753L475.007 205.39C475.079 205.431 475.171 205.406 475.213 205.333L481.304 194.829C481.346 194.756 481.323 194.664 481.251 194.623Z" fill="#4FC0E9" stroke="black" stroke-width="4.82"/>
<path d="M509.406 277.5V175.125H544.492C556.07 175.125 564.883 177.445 570.93 182.086C576.977 186.727 580 193.641 580 202.828C580 207.516 578.734 211.734 576.203 215.484C573.672 219.234 569.969 222.141 565.094 224.203C570.625 225.703 574.891 228.539 577.891 232.711C580.938 236.836 582.461 241.805 582.461 247.617C582.461 257.227 579.367 264.609 573.18 269.766C567.039 274.922 558.227 277.5 546.742 277.5H509.406ZM527.195 231.305V263.297H546.953C552.531 263.297 556.891 261.914 560.031 259.148C563.172 256.383 564.742 252.539 564.742 247.617C564.742 236.977 559.305 231.539 548.43 231.305H527.195ZM527.195 218.227H544.633C550.164 218.227 554.477 216.984 557.57 214.5C560.711 211.969 562.281 208.406 562.281 203.812C562.281 198.75 560.828 195.094 557.922 192.844C555.062 190.594 550.586 189.469 544.492 189.469H527.195V218.227ZM593.958 238.758C593.958 231.305 595.435 224.602 598.388 218.648C601.341 212.648 605.49 208.055 610.833 204.867C616.177 201.633 622.318 200.016 629.255 200.016C639.521 200.016 647.841 203.32 654.216 209.93C660.638 216.539 664.107 225.305 664.622 236.227L664.693 240.234C664.693 247.734 663.24 254.438 660.333 260.344C657.474 266.25 653.349 270.82 647.958 274.055C642.615 277.289 636.427 278.906 629.396 278.906C618.662 278.906 610.06 275.344 603.591 268.219C597.169 261.047 593.958 251.508 593.958 239.602V238.758ZM611.044 240.234C611.044 248.062 612.662 254.203 615.896 258.656C619.13 263.062 623.63 265.266 629.396 265.266C635.162 265.266 639.638 263.016 642.826 258.516C646.06 254.016 647.677 247.43 647.677 238.758C647.677 231.07 646.013 224.977 642.685 220.477C639.404 215.977 634.927 213.727 629.255 213.727C623.677 213.727 619.247 215.953 615.966 220.406C612.685 224.812 611.044 231.422 611.044 240.234ZM699.112 182.93V201.422H712.542V214.078H699.112V256.547C699.112 259.453 699.675 261.562 700.8 262.875C701.972 264.141 704.034 264.773 706.987 264.773C708.956 264.773 710.948 264.539 712.964 264.07V277.289C709.073 278.367 705.323 278.906 701.714 278.906C688.589 278.906 682.026 271.664 682.026 257.18V214.078H669.511V201.422H682.026V182.93H699.112ZM725.867 277.5V175.125H760.953C772.532 175.125 781.344 177.445 787.391 182.086C793.438 186.727 796.461 193.641 796.461 202.828C796.461 207.516 795.196 211.734 792.664 215.484C790.133 219.234 786.43 222.141 781.555 224.203C787.086 225.703 791.352 228.539 794.352 232.711C797.399 236.836 798.922 241.805 798.922 247.617C798.922 257.227 795.828 264.609 789.641 269.766C783.5 274.922 774.688 277.5 763.203 277.5H725.867ZM743.657 231.305V263.297H763.414C768.992 263.297 773.352 261.914 776.492 259.148C779.633 256.383 781.203 252.539 781.203 247.617C781.203 236.977 775.766 231.539 764.891 231.305H743.657ZM743.657 218.227H761.094C766.625 218.227 770.938 216.984 774.032 214.5C777.172 211.969 778.742 208.406 778.742 203.812C778.742 198.75 777.289 195.094 774.383 192.844C771.524 190.594 767.047 189.469 760.953 189.469H743.657V218.227ZM831.795 277.5H814.709V169.5H831.795V277.5ZM845.823 238.758C845.823 231.305 847.3 224.602 850.253 218.648C853.206 212.648 857.355 208.055 862.698 204.867C868.042 201.633 874.183 200.016 881.12 200.016C891.386 200.016 899.706 203.32 906.081 209.93C912.503 216.539 915.972 225.305 916.487 236.227L916.558 240.234C916.558 247.734 915.105 254.438 912.198 260.344C909.339 266.25 905.214 270.82 899.823 274.055C894.48 277.289 888.292 278.906 881.261 278.906C870.527 278.906 861.925 275.344 855.456 268.219C849.034 261.047 845.823 251.508 845.823 239.602V238.758ZM862.909 240.234C862.909 248.062 864.527 254.203 867.761 258.656C870.995 263.062 875.495 265.266 881.261 265.266C887.027 265.266 891.503 263.016 894.691 258.516C897.925 254.016 899.542 247.43 899.542 238.758C899.542 231.07 897.878 224.977 894.55 220.477C891.269 215.977 886.792 213.727 881.12 213.727C875.542 213.727 871.112 215.953 867.831 220.406C864.55 224.812 862.909 231.422 862.909 240.234ZM960.821 265.266C965.087 265.266 968.626 264.023 971.438 261.539C974.251 259.055 975.751 255.984 975.938 252.328H992.04C991.852 257.062 990.376 261.492 987.61 265.617C984.844 269.695 981.094 272.93 976.36 275.32C971.626 277.711 966.516 278.906 961.032 278.906C950.391 278.906 941.954 275.461 935.719 268.57C929.485 261.68 926.368 252.164 926.368 240.023V238.266C926.368 226.688 929.462 217.43 935.649 210.492C941.837 203.508 950.274 200.016 960.962 200.016C970.008 200.016 977.368 202.664 983.04 207.961C988.758 213.211 991.758 220.125 992.04 228.703H975.938C975.751 224.344 974.251 220.758 971.438 217.945C968.672 215.133 965.133 213.727 960.821 213.727C955.29 213.727 951.024 215.742 948.024 219.773C945.024 223.758 943.501 229.828 943.454 237.984V240.727C943.454 248.977 944.93 255.141 947.883 259.219C950.883 263.25 955.196 265.266 960.821 265.266ZM1028.22 244.875L1020.62 252.68V277.5H1003.54V169.5H1020.62V231.797L1025.97 225.117L1046.99 201.422H1067.52L1039.26 233.133L1070.55 277.5H1050.79L1028.22 244.875Z" fill="white"/>
<path d="M1079.7 269.5C1081.3 269.5 1082.53 269.957 1083.39 270.871C1084.26 271.762 1084.7 272.887 1084.7 274.246C1084.7 275.582 1084.26 276.695 1083.39 277.586C1082.53 278.453 1081.3 278.887 1079.7 278.887C1078.18 278.887 1076.97 278.453 1076.08 277.586C1075.19 276.719 1074.75 275.605 1074.75 274.246C1074.75 272.887 1075.18 271.762 1076.05 270.871C1076.91 269.957 1078.13 269.5 1079.7 269.5ZM1092.17 259.129C1092.17 255.402 1092.91 252.051 1094.38 249.074C1095.86 246.074 1097.93 243.777 1100.6 242.184C1103.28 240.566 1106.35 239.758 1109.82 239.758C1114.95 239.758 1119.11 241.41 1122.3 244.715C1125.51 248.02 1127.24 252.402 1127.5 257.863L1127.53 259.867C1127.53 263.617 1126.81 266.969 1125.35 269.922C1123.92 272.875 1121.86 275.16 1119.17 276.777C1116.49 278.395 1113.4 279.203 1109.89 279.203C1104.52 279.203 1100.22 277.422 1096.98 273.859C1093.77 270.273 1092.17 265.504 1092.17 259.551V259.129ZM1100.71 259.867C1100.71 263.781 1101.52 266.852 1103.14 269.078C1104.75 271.281 1107 272.383 1109.89 272.383C1112.77 272.383 1115.01 271.258 1116.6 269.008C1118.22 266.758 1119.03 263.465 1119.03 259.129C1119.03 255.285 1118.19 252.238 1116.53 249.988C1114.89 247.738 1112.65 246.613 1109.82 246.613C1107.03 246.613 1104.81 247.727 1103.17 249.953C1101.53 252.156 1100.71 255.461 1100.71 259.867ZM1153.95 248.266C1152.83 248.078 1151.67 247.984 1150.47 247.984C1146.56 247.984 1143.92 249.484 1142.56 252.484V278.5H1134.02V240.461H1142.18L1142.39 244.715C1144.45 241.41 1147.31 239.758 1150.97 239.758C1152.19 239.758 1153.19 239.922 1153.99 240.25L1153.95 248.266ZM1156.43 259.199C1156.43 253.293 1157.82 248.582 1160.58 245.066C1163.37 241.527 1167.06 239.758 1171.66 239.758C1175.99 239.758 1179.4 241.27 1181.89 244.293L1182.27 240.461H1189.97V277.34C1189.97 282.332 1188.41 286.27 1185.3 289.152C1182.2 292.035 1178.02 293.477 1172.75 293.477C1169.96 293.477 1167.23 292.891 1164.55 291.719C1161.91 290.57 1159.89 289.059 1158.51 287.184L1162.55 282.051C1165.18 285.168 1168.41 286.727 1172.25 286.727C1175.09 286.727 1177.33 285.953 1178.97 284.406C1180.61 282.883 1181.43 280.633 1181.43 277.656V275.09C1178.97 277.832 1175.69 279.203 1171.59 279.203C1167.13 279.203 1163.49 277.434 1160.65 273.895C1157.84 270.355 1156.43 265.457 1156.43 259.199ZM1164.94 259.938C1164.94 263.758 1165.71 266.77 1167.26 268.973C1168.83 271.152 1171 272.242 1173.77 272.242C1177.21 272.242 1179.77 270.766 1181.43 267.812V251.078C1179.81 248.195 1177.28 246.754 1173.84 246.754C1171.02 246.754 1168.83 247.867 1167.26 250.094C1165.71 252.32 1164.94 255.602 1164.94 259.938Z" fill="#29A3D0"/>
<path d="M530.094 311.492H522.113V333.5H517.701V311.492H509.791V307.906H530.094V311.492ZM536.906 316.555C538.3 314.938 540.064 314.129 542.197 314.129C546.251 314.129 548.308 316.443 548.367 321.072V333.5H544.095V321.23C544.095 319.918 543.808 318.992 543.234 318.453C542.671 317.902 541.839 317.627 540.738 317.627C539.027 317.627 537.749 318.389 536.906 319.912V333.5H532.634V306.5H536.906V316.555ZM560.716 333.852C558.009 333.852 555.811 333.002 554.124 331.303C552.448 329.592 551.61 327.318 551.61 324.482V323.955C551.61 322.057 551.973 320.363 552.7 318.875C553.438 317.375 554.469 316.209 555.794 315.377C557.118 314.545 558.594 314.129 560.223 314.129C562.813 314.129 564.811 314.955 566.217 316.607C567.635 318.26 568.344 320.598 568.344 323.621V325.344H555.917C556.046 326.914 556.567 328.156 557.481 329.07C558.407 329.984 559.567 330.441 560.962 330.441C562.919 330.441 564.512 329.65 565.743 328.068L568.046 330.266C567.284 331.402 566.264 332.287 564.987 332.92C563.721 333.541 562.298 333.852 560.716 333.852ZM560.206 317.557C559.034 317.557 558.085 317.967 557.358 318.787C556.643 319.607 556.186 320.75 555.987 322.215H564.126V321.898C564.032 320.469 563.651 319.391 562.983 318.664C562.315 317.926 561.389 317.557 560.206 317.557ZM590.581 328.332C590.581 327.57 590.265 326.99 589.632 326.592C589.011 326.193 587.974 325.842 586.521 325.537C585.068 325.232 583.855 324.846 582.882 324.377C580.749 323.346 579.683 321.852 579.683 319.895C579.683 318.254 580.374 316.883 581.757 315.781C583.14 314.68 584.898 314.129 587.031 314.129C589.304 314.129 591.138 314.691 592.533 315.816C593.939 316.941 594.642 318.4 594.642 320.193H590.371C590.371 319.373 590.066 318.693 589.456 318.154C588.847 317.604 588.039 317.328 587.031 317.328C586.093 317.328 585.326 317.545 584.728 317.979C584.142 318.412 583.849 318.992 583.849 319.719C583.849 320.375 584.124 320.885 584.675 321.248C585.226 321.611 586.339 321.98 588.015 322.355C589.691 322.719 591.003 323.158 591.953 323.674C592.914 324.178 593.622 324.787 594.08 325.502C594.548 326.217 594.783 327.084 594.783 328.104C594.783 329.814 594.074 331.203 592.656 332.27C591.238 333.324 589.38 333.852 587.083 333.852C585.525 333.852 584.136 333.57 582.917 333.008C581.699 332.445 580.749 331.672 580.07 330.688C579.39 329.703 579.05 328.643 579.05 327.506H583.199C583.257 328.514 583.638 329.293 584.341 329.844C585.044 330.383 585.976 330.652 587.136 330.652C588.261 330.652 589.117 330.441 589.703 330.02C590.289 329.586 590.581 329.023 590.581 328.332ZM602.702 333.5H598.43V314.48H602.702V333.5ZM598.167 309.541C598.167 308.885 598.372 308.34 598.782 307.906C599.204 307.473 599.802 307.256 600.575 307.256C601.348 307.256 601.946 307.473 602.368 307.906C602.79 308.34 603.001 308.885 603.001 309.541C603.001 310.186 602.79 310.725 602.368 311.158C601.946 311.58 601.348 311.791 600.575 311.791C599.802 311.791 599.204 311.58 598.782 311.158C598.372 310.725 598.167 310.186 598.167 309.541ZM610.973 314.48L611.096 316.678C612.502 314.979 614.348 314.129 616.633 314.129C620.594 314.129 622.61 316.396 622.68 320.932V333.5H618.408V321.178C618.408 319.971 618.145 319.08 617.617 318.506C617.102 317.92 616.252 317.627 615.069 317.627C613.346 317.627 612.063 318.406 611.219 319.965V333.5H606.947V314.48H610.973ZM625.941 323.85C625.941 320.896 626.632 318.541 628.015 316.783C629.41 315.014 631.255 314.129 633.552 314.129C635.72 314.129 637.425 314.885 638.668 316.396L638.861 314.48H642.71V332.92C642.71 335.416 641.931 337.385 640.373 338.826C638.826 340.268 636.734 340.988 634.097 340.988C632.703 340.988 631.337 340.695 630.001 340.109C628.677 339.535 627.669 338.779 626.978 337.842L629 335.275C630.312 336.834 631.929 337.613 633.851 337.613C635.269 337.613 636.388 337.227 637.209 336.453C638.029 335.691 638.439 334.566 638.439 333.078V331.795C637.209 333.166 635.568 333.852 633.517 333.852C631.291 333.852 629.468 332.967 628.05 331.197C626.644 329.428 625.941 326.979 625.941 323.85ZM630.195 324.219C630.195 326.129 630.582 327.635 631.355 328.736C632.14 329.826 633.224 330.371 634.607 330.371C636.33 330.371 637.607 329.633 638.439 328.156V319.789C637.63 318.348 636.365 317.627 634.642 317.627C633.236 317.627 632.14 318.184 631.355 319.297C630.582 320.41 630.195 322.051 630.195 324.219ZM651.298 333.5H647.026V306.5H651.298V333.5ZM663.981 333.852C661.274 333.852 659.076 333.002 657.389 331.303C655.713 329.592 654.875 327.318 654.875 324.482V323.955C654.875 322.057 655.239 320.363 655.965 318.875C656.703 317.375 657.735 316.209 659.059 315.377C660.383 314.545 661.86 314.129 663.489 314.129C666.078 314.129 668.076 314.955 669.483 316.607C670.901 318.26 671.61 320.598 671.61 323.621V325.344H659.182C659.311 326.914 659.832 328.156 660.746 329.07C661.672 329.984 662.832 330.441 664.227 330.441C666.184 330.441 667.778 329.65 669.008 328.068L671.311 330.266C670.549 331.402 669.53 332.287 668.252 332.92C666.987 333.541 665.563 333.852 663.981 333.852ZM663.471 317.557C662.299 317.557 661.35 317.967 660.623 318.787C659.908 319.607 659.451 320.75 659.252 322.215H667.391V321.898C667.297 320.469 666.916 319.391 666.248 318.664C665.58 317.926 664.655 317.557 663.471 317.557ZM693.847 328.332C693.847 327.57 693.53 326.99 692.897 326.592C692.276 326.193 691.239 325.842 689.786 325.537C688.333 325.232 687.12 324.846 686.147 324.377C684.015 323.346 682.948 321.852 682.948 319.895C682.948 318.254 683.64 316.883 685.022 315.781C686.405 314.68 688.163 314.129 690.296 314.129C692.569 314.129 694.403 314.691 695.798 315.816C697.204 316.941 697.907 318.4 697.907 320.193H693.636C693.636 319.373 693.331 318.693 692.722 318.154C692.112 317.604 691.304 317.328 690.296 317.328C689.358 317.328 688.591 317.545 687.993 317.979C687.407 318.412 687.114 318.992 687.114 319.719C687.114 320.375 687.39 320.885 687.94 321.248C688.491 321.611 689.604 321.98 691.28 322.355C692.956 322.719 694.269 323.158 695.218 323.674C696.179 324.178 696.888 324.787 697.345 325.502C697.813 326.217 698.048 327.084 698.048 328.104C698.048 329.814 697.339 331.203 695.921 332.27C694.503 333.324 692.645 333.852 690.349 333.852C688.79 333.852 687.401 333.57 686.183 333.008C684.964 332.445 684.015 331.672 683.335 330.688C682.655 329.703 682.315 328.643 682.315 327.506H686.464C686.522 328.514 686.903 329.293 687.606 329.844C688.31 330.383 689.241 330.652 690.401 330.652C691.526 330.652 692.382 330.441 692.968 330.02C693.554 329.586 693.847 329.023 693.847 328.332ZM700.623 323.814C700.623 321.951 700.992 320.275 701.731 318.787C702.469 317.287 703.506 316.139 704.842 315.342C706.178 314.533 707.713 314.129 709.448 314.129C712.014 314.129 714.094 314.955 715.688 316.607C717.293 318.26 718.16 320.451 718.289 323.182L718.307 324.184C718.307 326.059 717.944 327.734 717.217 329.211C716.502 330.688 715.471 331.83 714.123 332.639C712.787 333.447 711.241 333.852 709.483 333.852C706.799 333.852 704.649 332.961 703.032 331.18C701.426 329.387 700.623 327.002 700.623 324.025V323.814ZM704.895 324.184C704.895 326.141 705.299 327.676 706.108 328.789C706.916 329.891 708.041 330.441 709.483 330.441C710.924 330.441 712.043 329.879 712.84 328.754C713.649 327.629 714.053 325.982 714.053 323.814C714.053 321.893 713.637 320.369 712.805 319.244C711.985 318.119 710.866 317.557 709.448 317.557C708.053 317.557 706.946 318.113 706.125 319.227C705.305 320.328 704.895 321.98 704.895 324.184ZM733.082 331.637C731.828 333.113 730.047 333.852 727.738 333.852C725.675 333.852 724.111 333.248 723.045 332.041C721.99 330.834 721.463 329.088 721.463 326.803V314.48H725.734V326.75C725.734 329.164 726.736 330.371 728.74 330.371C730.814 330.371 732.215 329.627 732.941 328.139V314.48H737.213V333.5H733.187L733.082 331.637ZM751.161 318.383C750.599 318.289 750.019 318.242 749.421 318.242C747.464 318.242 746.146 318.992 745.466 320.492V333.5H741.194V314.48H745.273L745.378 316.607C746.409 314.955 747.839 314.129 749.667 314.129C750.276 314.129 750.78 314.211 751.179 314.375L751.161 318.383ZM760.961 330.441C762.028 330.441 762.913 330.131 763.616 329.51C764.319 328.889 764.694 328.121 764.741 327.207H768.766C768.719 328.391 768.35 329.498 767.659 330.529C766.967 331.549 766.03 332.357 764.846 332.955C763.663 333.553 762.385 333.852 761.014 333.852C758.354 333.852 756.245 332.99 754.686 331.268C753.127 329.545 752.348 327.166 752.348 324.131V323.691C752.348 320.797 753.121 318.482 754.668 316.748C756.215 315.002 758.325 314.129 760.996 314.129C763.258 314.129 765.098 314.791 766.516 316.115C767.946 317.428 768.696 319.156 768.766 321.301H764.741C764.694 320.211 764.319 319.314 763.616 318.611C762.924 317.908 762.039 317.557 760.961 317.557C759.579 317.557 758.512 318.061 757.762 319.068C757.012 320.064 756.631 321.582 756.62 323.621V324.307C756.62 326.369 756.989 327.91 757.727 328.93C758.477 329.938 759.555 330.441 760.961 330.441ZM780.008 333.852C777.301 333.852 775.103 333.002 773.416 331.303C771.74 329.592 770.902 327.318 770.902 324.482V323.955C770.902 322.057 771.265 320.363 771.992 318.875C772.73 317.375 773.761 316.209 775.086 315.377C776.41 314.545 777.886 314.129 779.515 314.129C782.105 314.129 784.103 314.955 785.51 316.607C786.927 318.26 787.636 320.598 787.636 323.621V325.344H775.209C775.338 326.914 775.859 328.156 776.773 329.07C777.699 329.984 778.859 330.441 780.254 330.441C782.211 330.441 783.804 329.65 785.035 328.068L787.338 330.266C786.576 331.402 785.556 332.287 784.279 332.92C783.013 333.541 781.59 333.852 780.008 333.852ZM779.498 317.557C778.326 317.557 777.377 317.967 776.65 318.787C775.935 319.607 775.478 320.75 775.279 322.215H783.418V321.898C783.324 320.469 782.943 319.391 782.275 318.664C781.607 317.926 780.681 317.557 779.498 317.557ZM800.715 333.5V317.645H797.815V314.48H800.715V312.74C800.715 310.631 801.301 309.002 802.473 307.854C803.645 306.705 805.286 306.131 807.395 306.131C808.145 306.131 808.942 306.236 809.786 306.447L809.68 309.787C809.211 309.693 808.666 309.646 808.045 309.646C806.006 309.646 804.987 310.695 804.987 312.793V314.48H808.854V317.645H804.987V333.5H800.715ZM810.814 323.814C810.814 321.951 811.183 320.275 811.922 318.787C812.66 317.287 813.697 316.139 815.033 315.342C816.369 314.533 817.904 314.129 819.639 314.129C822.205 314.129 824.285 314.955 825.879 316.607C827.484 318.26 828.351 320.451 828.48 323.182L828.498 324.184C828.498 326.059 828.135 327.734 827.408 329.211C826.693 330.688 825.662 331.83 824.314 332.639C822.978 333.447 821.431 333.852 819.674 333.852C816.99 333.852 814.84 332.961 813.223 331.18C811.617 329.387 810.814 327.002 810.814 324.025V323.814ZM815.086 324.184C815.086 326.141 815.49 327.676 816.299 328.789C817.107 329.891 818.232 330.441 819.674 330.441C821.115 330.441 822.234 329.879 823.031 328.754C823.84 327.629 824.244 325.982 824.244 323.814C824.244 321.893 823.828 320.369 822.996 319.244C822.176 318.119 821.056 317.557 819.639 317.557C818.244 317.557 817.137 318.113 816.316 319.227C815.496 320.328 815.086 321.98 815.086 324.184ZM841.708 318.383C841.146 318.289 840.566 318.242 839.968 318.242C838.011 318.242 836.693 318.992 836.013 320.492V333.5H831.741V314.48H835.82L835.925 316.607C836.956 314.955 838.386 314.129 840.214 314.129C840.823 314.129 841.327 314.211 841.726 314.375L841.708 318.383ZM864.016 333.5C863.828 333.137 863.664 332.545 863.523 331.725C862.164 333.143 860.5 333.852 858.531 333.852C856.621 333.852 855.062 333.307 853.855 332.217C852.648 331.127 852.045 329.779 852.045 328.174C852.045 326.146 852.795 324.594 854.295 323.516C855.807 322.426 857.963 321.881 860.764 321.881H863.383V320.633C863.383 319.648 863.107 318.863 862.557 318.277C862.006 317.68 861.168 317.381 860.043 317.381C859.07 317.381 858.273 317.627 857.652 318.119C857.031 318.6 856.721 319.215 856.721 319.965H852.449C852.449 318.922 852.795 317.949 853.486 317.047C854.178 316.133 855.115 315.418 856.299 314.902C857.494 314.387 858.824 314.129 860.289 314.129C862.516 314.129 864.291 314.691 865.615 315.816C866.939 316.93 867.619 318.5 867.654 320.527V329.105C867.654 330.816 867.894 332.182 868.375 333.201V333.5H864.016ZM859.322 330.424C860.166 330.424 860.957 330.219 861.695 329.809C862.445 329.398 863.008 328.848 863.383 328.156V324.57H861.08C859.498 324.57 858.309 324.846 857.512 325.396C856.715 325.947 856.316 326.727 856.316 327.734C856.316 328.555 856.586 329.211 857.125 329.703C857.676 330.184 858.408 330.424 859.322 330.424ZM876.312 333.5H872.04V306.5H876.312V333.5ZM885.163 333.5H880.891V306.5H885.163V333.5ZM898.488 333.5V307.906H906.046C908.308 307.906 910.312 308.41 912.058 309.418C913.816 310.426 915.175 311.855 916.136 313.707C917.097 315.559 917.578 317.68 917.578 320.07V321.354C917.578 323.779 917.091 325.912 916.119 327.752C915.158 329.592 913.781 331.01 911.988 332.006C910.206 333.002 908.161 333.5 905.853 333.5H898.488ZM902.935 311.492V329.949H905.835C908.167 329.949 909.954 329.223 911.197 327.77C912.451 326.305 913.089 324.207 913.113 321.477V320.053C913.113 317.275 912.509 315.154 911.302 313.689C910.095 312.225 908.343 311.492 906.046 311.492H902.935ZM925.778 333.5H921.507V314.48H925.778V333.5ZM921.243 309.541C921.243 308.885 921.448 308.34 921.858 307.906C922.28 307.473 922.878 307.256 923.651 307.256C924.425 307.256 925.022 307.473 925.444 307.906C925.866 308.34 926.077 308.885 926.077 309.541C926.077 310.186 925.866 310.725 925.444 311.158C925.022 311.58 924.425 311.791 923.651 311.791C922.878 311.791 922.28 311.58 921.858 311.158C921.448 310.725 921.243 310.186 921.243 309.541ZM940.746 328.332C940.746 327.57 940.43 326.99 939.797 326.592C939.176 326.193 938.139 325.842 936.686 325.537C935.233 325.232 934.02 324.846 933.047 324.377C930.914 323.346 929.848 321.852 929.848 319.895C929.848 318.254 930.539 316.883 931.922 315.781C933.305 314.68 935.063 314.129 937.195 314.129C939.469 314.129 941.303 314.691 942.697 315.816C944.104 316.941 944.807 318.4 944.807 320.193H940.535C940.535 319.373 940.231 318.693 939.621 318.154C939.012 317.604 938.203 317.328 937.195 317.328C936.258 317.328 935.49 317.545 934.893 317.979C934.307 318.412 934.014 318.992 934.014 319.719C934.014 320.375 934.289 320.885 934.84 321.248C935.391 321.611 936.504 321.98 938.18 322.355C939.856 322.719 941.168 323.158 942.117 323.674C943.078 324.178 943.787 324.787 944.244 325.502C944.713 326.217 944.947 327.084 944.947 328.104C944.947 329.814 944.238 331.203 942.82 332.27C941.402 333.324 939.545 333.852 937.248 333.852C935.69 333.852 934.301 333.57 933.082 333.008C931.863 332.445 930.914 331.672 930.234 330.688C929.555 329.703 929.215 328.643 929.215 327.506H933.363C933.422 328.514 933.803 329.293 934.506 329.844C935.209 330.383 936.141 330.652 937.301 330.652C938.426 330.652 939.281 330.441 939.867 330.02C940.453 329.586 940.746 329.023 940.746 328.332ZM956.136 330.441C957.203 330.441 958.087 330.131 958.79 329.51C959.494 328.889 959.869 328.121 959.915 327.207H963.941C963.894 328.391 963.525 329.498 962.833 330.529C962.142 331.549 961.205 332.357 960.021 332.955C958.837 333.553 957.56 333.852 956.189 333.852C953.529 333.852 951.419 332.99 949.861 331.268C948.302 329.545 947.523 327.166 947.523 324.131V323.691C947.523 320.797 948.296 318.482 949.843 316.748C951.39 315.002 953.499 314.129 956.171 314.129C958.433 314.129 960.273 314.791 961.691 316.115C963.121 317.428 963.871 319.156 963.941 321.301H959.915C959.869 320.211 959.494 319.314 958.79 318.611C958.099 317.908 957.214 317.557 956.136 317.557C954.753 317.557 953.687 318.061 952.937 319.068C952.187 320.064 951.806 321.582 951.794 323.621V324.307C951.794 326.369 952.164 327.91 952.902 328.93C953.652 329.938 954.73 330.441 956.136 330.441ZM966.007 323.814C966.007 321.951 966.376 320.275 967.114 318.787C967.852 317.287 968.889 316.139 970.225 315.342C971.561 314.533 973.096 314.129 974.831 314.129C977.397 314.129 979.477 314.955 981.071 316.607C982.677 318.26 983.544 320.451 983.673 323.182L983.69 324.184C983.69 326.059 983.327 327.734 982.6 329.211C981.886 330.688 980.854 331.83 979.507 332.639C978.171 333.447 976.624 333.852 974.866 333.852C972.182 333.852 970.032 332.961 968.415 331.18C966.809 329.387 966.007 327.002 966.007 324.025V323.814ZM970.278 324.184C970.278 326.141 970.682 327.676 971.491 328.789C972.3 329.891 973.425 330.441 974.866 330.441C976.307 330.441 977.427 329.879 978.223 328.754C979.032 327.629 979.436 325.982 979.436 323.814C979.436 321.893 979.02 320.369 978.188 319.244C977.368 318.119 976.249 317.557 974.831 317.557C973.436 317.557 972.329 318.113 971.509 319.227C970.688 320.328 970.278 321.98 970.278 324.184ZM996.901 318.383C996.338 318.289 995.758 318.242 995.16 318.242C993.203 318.242 991.885 318.992 991.205 320.492V333.5H986.934V314.48H991.012L991.117 316.607C992.149 314.955 993.578 314.129 995.406 314.129C996.016 314.129 996.52 314.211 996.918 314.375L996.901 318.383ZM998.087 323.85C998.087 320.92 998.767 318.57 1000.13 316.801C1001.49 315.02 1003.31 314.129 1005.59 314.129C1007.61 314.129 1009.24 314.832 1010.48 316.238V306.5H1014.75V333.5H1010.88L1010.67 331.531C1009.4 333.078 1007.69 333.852 1005.56 333.852C1003.33 333.852 1001.53 332.955 1000.14 331.162C998.773 329.369 998.087 326.932 998.087 323.85ZM1002.36 324.219C1002.36 326.152 1002.73 327.664 1003.47 328.754C1004.22 329.832 1005.28 330.371 1006.65 330.371C1008.39 330.371 1009.67 329.592 1010.48 328.033V319.912C1009.69 318.389 1008.43 317.627 1006.68 317.627C1005.3 317.627 1004.23 318.178 1003.48 319.279C1002.73 320.369 1002.36 322.016 1002.36 324.219ZM1044.14 324.184C1044.14 327.137 1043.48 329.486 1042.16 331.232C1040.84 332.979 1039.03 333.852 1036.72 333.852C1034.5 333.852 1032.76 333.049 1031.52 331.443L1031.31 333.5H1027.44V306.5H1031.72V316.309C1032.95 314.855 1034.6 314.129 1036.69 314.129C1039.01 314.129 1040.83 314.99 1042.16 316.713C1043.48 318.436 1044.14 320.844 1044.14 323.938V324.184ZM1039.87 323.814C1039.87 321.752 1039.51 320.205 1038.78 319.174C1038.05 318.143 1037 317.627 1035.62 317.627C1033.77 317.627 1032.47 318.436 1031.72 320.053V327.893C1032.48 329.545 1033.79 330.371 1035.65 330.371C1036.99 330.371 1038.02 329.873 1038.75 328.877C1039.47 327.881 1039.85 326.375 1039.87 324.359V323.814ZM1046.58 323.814C1046.58 321.951 1046.95 320.275 1047.69 318.787C1048.42 317.287 1049.46 316.139 1050.8 315.342C1052.13 314.533 1053.67 314.129 1055.4 314.129C1057.97 314.129 1060.05 314.955 1061.64 316.607C1063.25 318.26 1064.11 320.451 1064.24 323.182L1064.26 324.184C1064.26 326.059 1063.9 327.734 1063.17 329.211C1062.46 330.688 1061.43 331.83 1060.08 332.639C1058.74 333.447 1057.19 333.852 1055.44 333.852C1052.75 333.852 1050.6 332.961 1048.99 331.18C1047.38 329.387 1046.58 327.002 1046.58 324.025V323.814ZM1050.85 324.184C1050.85 326.141 1051.25 327.676 1052.06 328.789C1052.87 329.891 1054 330.441 1055.44 330.441C1056.88 330.441 1058 329.879 1058.79 328.754C1059.6 327.629 1060.01 325.982 1060.01 323.814C1060.01 321.893 1059.59 320.369 1058.76 319.244C1057.94 318.119 1056.82 317.557 1055.4 317.557C1054.01 317.557 1052.9 318.113 1052.08 319.227C1051.26 320.328 1050.85 321.98 1050.85 324.184ZM1072.87 309.857V314.48H1076.22V317.645H1072.87V328.262C1072.87 328.988 1073.01 329.516 1073.29 329.844C1073.58 330.16 1074.1 330.318 1074.83 330.318C1075.33 330.318 1075.83 330.26 1076.33 330.143V333.447C1075.36 333.717 1074.42 333.852 1073.52 333.852C1070.24 333.852 1068.59 332.041 1068.59 328.42V317.645H1065.47V314.48H1068.59V309.857H1072.87ZM1092.29 333.5H1088.02V306.5H1092.29V333.5ZM1101.14 333.5H1096.87V314.48H1101.14V333.5ZM1096.61 309.541C1096.61 308.885 1096.81 308.34 1097.22 307.906C1097.64 307.473 1098.24 307.256 1099.01 307.256C1099.79 307.256 1100.39 307.473 1100.81 307.906C1101.23 308.34 1101.44 308.885 1101.44 309.541C1101.44 310.186 1101.23 310.725 1100.81 311.158C1100.39 311.58 1099.79 311.791 1099.01 311.791C1098.24 311.791 1097.64 311.58 1097.22 311.158C1096.81 310.725 1096.61 310.186 1096.61 309.541ZM1116.11 328.332C1116.11 327.57 1115.79 326.99 1115.16 326.592C1114.54 326.193 1113.5 325.842 1112.05 325.537C1110.6 325.232 1109.38 324.846 1108.41 324.377C1106.28 323.346 1105.21 321.852 1105.21 319.895C1105.21 318.254 1105.9 316.883 1107.29 315.781C1108.67 314.68 1110.43 314.129 1112.56 314.129C1114.83 314.129 1116.67 314.691 1118.06 315.816C1119.47 316.941 1120.17 318.4 1120.17 320.193H1115.9C1115.9 319.373 1115.59 318.693 1114.98 318.154C1114.38 317.604 1113.57 317.328 1112.56 317.328C1111.62 317.328 1110.85 317.545 1110.26 317.979C1109.67 318.412 1109.38 318.992 1109.38 319.719C1109.38 320.375 1109.65 320.885 1110.2 321.248C1110.75 321.611 1111.87 321.98 1113.54 322.355C1115.22 322.719 1116.53 323.158 1117.48 323.674C1118.44 324.178 1119.15 324.787 1119.61 325.502C1120.08 326.217 1120.31 327.084 1120.31 328.104C1120.31 329.814 1119.6 331.203 1118.18 332.27C1116.77 333.324 1114.91 333.852 1112.61 333.852C1111.05 333.852 1109.66 333.57 1108.45 333.008C1107.23 332.445 1106.28 331.672 1105.6 330.688C1104.92 329.703 1104.58 328.643 1104.58 327.506H1108.73C1108.79 328.514 1109.17 329.293 1109.87 329.844C1110.57 330.383 1111.5 330.652 1112.66 330.652C1113.79 330.652 1114.64 330.441 1115.23 330.02C1115.82 329.586 1116.11 329.023 1116.11 328.332ZM1129.04 309.857V314.48H1132.4V317.645H1129.04V328.262C1129.04 328.988 1129.18 329.516 1129.46 329.844C1129.75 330.16 1130.27 330.318 1131.01 330.318C1131.5 330.318 1132 330.26 1132.5 330.143V333.447C1131.53 333.717 1130.59 333.852 1129.69 333.852C1126.41 333.852 1124.77 332.041 1124.77 328.42V317.645H1121.64V314.48H1124.77V309.857H1129.04ZM1145.98 328.332C1145.98 327.57 1145.66 326.99 1145.03 326.592C1144.41 326.193 1143.37 325.842 1141.92 325.537C1140.46 325.232 1139.25 324.846 1138.28 324.377C1136.14 323.346 1135.08 321.852 1135.08 319.895C1135.08 318.254 1135.77 316.883 1137.15 315.781C1138.53 314.68 1140.29 314.129 1142.42 314.129C1144.7 314.129 1146.53 314.691 1147.93 315.816C1149.33 316.941 1150.04 318.4 1150.04 320.193H1145.76C1145.76 319.373 1145.46 318.693 1144.85 318.154C1144.24 317.604 1143.43 317.328 1142.42 317.328C1141.49 317.328 1140.72 317.545 1140.12 317.979C1139.54 318.412 1139.24 318.992 1139.24 319.719C1139.24 320.375 1139.52 320.885 1140.07 321.248C1140.62 321.611 1141.73 321.98 1143.41 322.355C1145.09 322.719 1146.4 323.158 1147.35 323.674C1148.31 324.178 1149.02 324.787 1149.47 325.502C1149.94 326.217 1150.18 327.084 1150.18 328.104C1150.18 329.814 1149.47 331.203 1148.05 332.27C1146.63 333.324 1144.77 333.852 1142.48 333.852C1140.92 333.852 1139.53 333.57 1138.31 333.008C1137.09 332.445 1136.14 331.672 1135.46 330.688C1134.78 329.703 1134.44 328.643 1134.44 327.506H1138.59C1138.65 328.514 1139.03 329.293 1139.74 329.844C1140.44 330.383 1141.37 330.652 1142.53 330.652C1143.66 330.652 1144.51 330.441 1145.1 330.02C1145.68 329.586 1145.98 329.023 1145.98 328.332ZM1156.22 329C1157.01 329 1157.63 329.229 1158.06 329.686C1158.49 330.131 1158.71 330.693 1158.71 331.373C1158.71 332.041 1158.49 332.598 1158.06 333.043C1157.63 333.477 1157.01 333.693 1156.22 333.693C1155.45 333.693 1154.85 333.477 1154.4 333.043C1153.96 332.609 1153.74 332.053 1153.74 331.373C1153.74 330.693 1153.95 330.131 1154.39 329.686C1154.82 329.229 1155.43 329 1156.22 329Z" fill="white"/>
</svg>
