<svg xmlns="http://www.w3.org/2000/svg" fill="none" viewBox="0 0 1500 500">
    <path fill="#29A3D0" d="M0 0h1500v500H0z"/>
    <path fill="#000" fill-opacity=".8" d="M0 0h1500v500H0z" style="mix-blend-mode:darken"/>
    <path stroke="#fff" stroke-opacity=".2" stroke-width="3.64078"
          d="M83.1388 10.3155V23.665M34.9775 81.4481l9.36098024 11.15598183-11.15690108 9.36175158-9.36098024-11.15598183zM10.1569 169.221l13.2987-1.164"/>
    <circle cx="164.753" cy="36.1044" r="11.8325" stroke="#fff" stroke-opacity=".2" stroke-width="3.64078"/>
    <path stroke="#fff" stroke-opacity=".2" stroke-width="3.64078" d="m264.953 60.3649 20.631 13.3495"/>
    <circle cx="181.44" cy="125" r="3.03398" stroke="#fff" stroke-opacity=".2" stroke-width="3.64078"/>
    <path stroke="#fff" stroke-opacity=".2" stroke-width="3.64078"
          d="m109.941 198.652-17.5028 16.523 1.4067-24.028 16.0961 7.505Zm8.31 103.324 18.593-15.602m-82.606 53.761 9.61425521-1.35119545 3.71578262 26.43916717-9.6142552 1.35119545z"/>
    <circle cx="24.2796" cy="457.524" r="1.82039" stroke="#fff" stroke-opacity=".2" stroke-width="3.64078"/>
    <path stroke="#fff" stroke-opacity=".2" stroke-width="3.64078"
          d="m211.701 231.663 5.7709729 1.87510276-1.87510276 5.7709729-5.7709729-1.87510276zm19.496 72.342v25.485h-25.485m-45.585 88.345-1.519-5.087 5.309-.034 1.52 5.087-5.31.034Zm115.887-251.069 8.923-15.511 11.953 13.317-8.923 15.511-11.953-13.317Zm136.2-107.9068 14.371-23.8028v23.8028h-14.371Zm-13.559 71.9558 3.378 24.035m-40.318 72.048-1.383 2.834-1.763-2.614 3.146-.22Zm116.101-14.038c-2.292-6.298-9.256-9.545-15.555-7.253-6.298 2.292-9.545 9.257-7.253 15.555m-98.471 81.647 12.272-2.164 8.01 9.546-4.262 11.71-12.272 2.164-8.01-9.546 4.262-11.71Zm-59.225 60.803.374-2.079 1.306 1.661-1.68.418Zm-3.572 75.889-7.274 12.931-9.41-11.471 16.684-1.46Zm102.533-46.415 18.196 16.967"/>
    <circle cx="439.328" cy="445.388" r="6.67476" stroke="#fff" stroke-opacity=".2" stroke-width="3.64078"/>
    <path fill="#fff" fill-opacity=".2"
          d="m467.848 310.073-6.068 1.213-.607 12.743 3.034-.607-.607 12.743 6.068-17.597-3.641.607 1.821-9.102Z"/>
    <path stroke="#fff" stroke-opacity=".2" stroke-width="3.64078"
          d="M583.139 10.3155V23.665m-48.161 57.7831 9.36098024 11.15598183-11.15690108 9.36175158-9.36098024-11.15598183zm-24.821 87.7729 13.299-1.164"/>
    <circle cx="664.753" cy="36.1044" r="11.8325" stroke="#fff" stroke-opacity=".2" stroke-width="3.64078"/>
    <path stroke="#fff" stroke-opacity=".2" stroke-width="3.64078" d="m764.953 60.3649 20.631 13.3495"/>
    <circle cx="681.44" cy="125" r="3.03398" stroke="#fff" stroke-opacity=".2" stroke-width="3.64078"/>
    <path stroke="#fff" stroke-opacity=".2" stroke-width="3.64078"
          d="m609.941 198.652-17.503 16.523 1.407-24.028 16.096 7.505Zm8.31 103.324 18.593-15.602m-82.606 53.761 9.61425521-1.35119545 3.71578262 26.43916717-9.6142552 1.35119545z"/>
    <circle cx="524.28" cy="457.524" r="1.82039" stroke="#fff" stroke-opacity=".2" stroke-width="3.64078"/>
    <path stroke="#fff" stroke-opacity=".2" stroke-width="3.64078"
          d="m711.701 231.663 5.7709729 1.87510276-1.87510276 5.7709729-5.7709729-1.87510276zm19.496 72.342v25.485h-25.485m-45.585 88.345-1.519-5.087 5.309-.034 1.52 5.087-5.31.034Zm115.887-251.069 8.923-15.511 11.953 13.317-8.923 15.511-11.953-13.317Zm136.2-107.9068 14.371-23.8028v23.8028h-14.371Zm-13.559 71.9558 3.378 24.035m-40.318 72.048-1.383 2.834-1.763-2.614 3.146-.22Zm116.101-14.038c-2.292-6.298-9.257-9.545-15.555-7.253s-9.545 9.257-7.253 15.555m-98.471 81.647 12.272-2.164 8.01 9.546-4.262 11.71-12.272 2.164-8.01-9.546 4.262-11.71Zm-59.225 60.803.374-2.079 1.306 1.661-1.68.418Zm-3.572 75.889-7.274 12.931-9.41-11.471 16.684-1.46Zm102.533-46.415 18.196 16.967"/>
    <circle cx="939.328" cy="445.388" r="6.67476" stroke="#fff" stroke-opacity=".2" stroke-width="3.64078"/>
    <path fill="#fff" fill-opacity=".2"
          d="m967.847 310.073-6.067 1.213-.607 12.743 3.034-.607-.607 12.743 6.068-17.597-3.641.607 1.82-9.102Z"/>
    <path stroke="#fff" stroke-opacity=".2" stroke-width="3.64078"
          d="M1083.14 10.3155V23.665m-48.16 57.7831 9.36098024 11.15598183-11.15690108 9.36175158-9.36098024-11.15598183zm-24.82 87.7729 13.3-1.164"/>
    <circle cx="1164.75" cy="36.1044" r="11.8325" stroke="#fff" stroke-opacity=".2" stroke-width="3.64078"/>
    <path stroke="#fff" stroke-opacity=".2" stroke-width="3.64078" d="m1264.95 60.3649 20.63 13.3495"/>
    <circle cx="1181.44" cy="125" r="3.03398" stroke="#fff" stroke-opacity=".2" stroke-width="3.64078"/>
    <path stroke="#fff" stroke-opacity=".2" stroke-width="3.64078"
          d="m1109.94 198.652-17.5 16.523 1.4-24.028 16.1 7.505Zm8.31 103.324 18.59-15.602m-82.6 53.761 9.61425521-1.35119545 3.71578262 26.43916717-9.6142552 1.35119545z"/>
    <circle cx="1024.28" cy="457.524" r="1.82039" stroke="#fff" stroke-opacity=".2" stroke-width="3.64078"/>
    <path stroke="#fff" stroke-opacity=".2" stroke-width="3.64078"
          d="m1211.7 231.663 5.7709729 1.87510276-1.87510276 5.7709729-5.7709729-1.87510276zm19.5 72.342v25.485h-25.49m-45.58 88.345-1.52-5.087 5.31-.034 1.52 5.087-5.31.034Zm115.88-251.069 8.93-15.511 11.95 13.317-8.92 15.511-11.96-13.317Zm136.2-107.9068 14.38-23.8028v23.8028h-14.38Zm-13.56 71.9558 3.38 24.035m-40.32 72.048-1.38 2.834-1.76-2.614 3.14-.22Zm116.11-14.038c-2.3-6.298-9.26-9.545-15.56-7.253-6.3 2.292-9.54 9.257-7.25 15.555m-98.47 81.647 12.27-2.164 8.01 9.546-4.26 11.71-12.27 2.164-8.01-9.546 4.26-11.71Zm-59.23 60.803.38-2.079 1.3 1.661-1.68.418Zm-3.57 75.889-7.27 12.931-9.41-11.471 16.68-1.46Zm102.53-46.415 18.2 16.967"/>
    <circle cx="1439.33" cy="445.388" r="6.67476" stroke="#fff" stroke-opacity=".2" stroke-width="3.64078"/>
    <path fill="#fff" fill-opacity=".2"
          d="m1467.85 310.073-6.07 1.213-.61 12.743 3.04-.607-.61 12.743 6.07-17.597-3.64.607 1.82-9.102Z"/>
    <path fill="#359DC4" stroke="#000" stroke-width="4.82"
          d="M381.742 297.934h97.116c.423 0 .824.078 1.247.304.443.237.805.598 1.041 1.041.227.423.304.824.304 1.247v39.708h-102.3v-39.708c0-.423.077-.824.304-1.247.236-.443.598-.804 1.041-1.041.423-.226.824-.304 1.247-.304Zm32.058-12.768h-19.5c-.083 0-.15.067-.15.15v12c0 .082.067.15.15.15h19.5c.083 0 .15-.068.15-.15v-12c0-.083-.067-.15-.15-.15Zm52.5 0h-19.5c-.083 0-.15.067-.15.15v12c0 .082.067.15.15.15h19.5c.083 0 .15-.068.15-.15v-12c0-.083-.067-.15-.15-.15Z"/>
    <path fill="#D56FAC" stroke="#000" stroke-width="4.82"
          d="M351.25 285.166h-19.5c-.083 0-.15.067-.15.15v12c0 .082.067.15.15.15h19.5c.083 0 .15-.068.15-.15v-12c0-.083-.067-.15-.15-.15Zm-34.008 12.768h48.366c.423 0 .824.078 1.247.304.443.237.805.598 1.041 1.041.227.423.304.824.304 1.247v39.708h-53.55v-39.708c0-.423.077-.824.304-1.247.236-.443.598-.804 1.041-1.041.423-.226.824-.304 1.247-.304Z"/>
    <path fill="#967ADC" stroke="#000" stroke-width="4.82"
          d="M317.242 236.134h97.116c.423 0 .824.078 1.247.304.443.237.805.598 1.041 1.041.227.423.304.824.304 1.247v39.708h-102.3v-39.708c0-.423.077-.824.304-1.247.236-.443.598-.804 1.041-1.041.423-.226.824-.304 1.247-.304Zm32.058-12.75h-19.5c-.083 0-.15.067-.15.15v12c0 .083.067.15.15.15h19.5c.083 0 .15-.067.15-.15v-12c0-.083-.067-.15-.15-.15Zm52.5 0h-19.5c-.083 0-.15.067-.15.15v12c0 .083.067.15.15.15h19.5c.083 0 .15-.067.15-.15v-12c0-.083-.067-.15-.15-.15Z"/>
    <path fill="#4FC0E9" stroke="#000" stroke-width="4.82"
          d="m402.146 163.209 83.768 48.103c.365.209.671.476.921.884.262.427.39.923.369 1.429-.02.483-.157.874-.372 1.245l-20.187 34.838-88.24-50.671 20.187-34.838c.215-.371.486-.685.896-.944.429-.271.925-.409 1.427-.397.48.011.866.141 1.231.351Z"/>
    <path fill="#4FC0E9" stroke="#000" stroke-width="4.82"
          d="m435.785 168.373-16.795-9.637c-.071-.041-.163-.015-.205.057l-6.092 10.505c-.042.072-.018.164.053.205l16.795 9.637c.071.041.163.016.205-.057l6.092-10.504c.042-.073.018-.165-.053-.206Zm45.466 26.25-16.795-9.637c-.071-.041-.163-.015-.205.057l-6.092 10.505c-.042.072-.018.164.053.205l16.795 9.637c.072.041.164.016.206-.057l6.091-10.504c.042-.073.019-.165-.053-.206Z"/>
    <path fill="#fff"
          d="M509.406 277.5V175.125h35.086c11.578 0 20.391 2.32 26.438 6.961 6.047 4.641 9.07 11.555 9.07 20.742 0 4.688-1.266 8.906-3.797 12.656s-6.234 6.657-11.109 8.719c5.531 1.5 9.797 4.336 12.797 8.508 3.047 4.125 4.57 9.094 4.57 14.906 0 9.61-3.094 16.992-9.281 22.149-6.141 5.156-14.953 7.734-26.438 7.734h-37.336Zm17.789-46.195v31.992h19.758c5.578 0 9.938-1.383 13.078-4.149 3.141-2.765 4.711-6.609 4.711-11.531 0-10.64-5.437-16.078-16.312-16.312h-21.235Zm0-13.078h17.438c5.531 0 9.844-1.243 12.937-3.727 3.141-2.531 4.711-6.094 4.711-10.688 0-5.062-1.453-8.718-4.359-10.968-2.86-2.25-7.336-3.375-13.43-3.375h-17.297v28.758Zm66.763 20.531c0-7.453 1.477-14.156 4.43-20.11 2.953-6 7.102-10.593 12.445-13.781 5.344-3.234 11.485-4.851 18.422-4.851 10.266 0 18.586 3.304 24.961 9.914 6.422 6.609 9.891 15.375 10.406 26.297l.071 4.007c0 7.5-1.453 14.204-4.36 20.11-2.859 5.906-6.984 10.476-12.375 13.711-5.343 3.234-11.531 4.851-18.562 4.851-10.734 0-19.336-3.562-25.805-10.687-6.422-7.172-9.633-16.711-9.633-28.617v-.844Zm17.086 1.476c0 7.828 1.618 13.969 4.852 18.422 3.234 4.406 7.734 6.61 13.5 6.61s10.242-2.25 13.43-6.75c3.234-4.5 4.851-11.086 4.851-19.758 0-7.688-1.664-13.781-4.992-18.281-3.281-4.5-7.758-6.75-13.43-6.75-5.578 0-10.008 2.226-13.289 6.679-3.281 4.406-4.922 11.016-4.922 19.828Zm88.068-57.304v18.492h13.43v12.656h-13.43v42.469c0 2.906.563 5.015 1.688 6.328 1.172 1.266 3.234 1.898 6.187 1.898 1.969 0 3.961-.234 5.977-.703v13.219c-3.891 1.078-7.641 1.617-11.25 1.617-13.125 0-19.688-7.242-19.688-21.726v-43.102h-12.515v-12.656h12.515V182.93h17.086Zm26.755 94.57V175.125h35.086c11.579 0 20.391 2.32 26.438 6.961 6.047 4.641 9.07 11.555 9.07 20.742 0 4.688-1.265 8.906-3.797 12.656-2.531 3.75-6.234 6.657-11.109 8.719 5.531 1.5 9.797 4.336 12.797 8.508 3.047 4.125 4.57 9.094 4.57 14.906 0 9.61-3.094 16.992-9.281 22.149-6.141 5.156-14.953 7.734-26.438 7.734h-37.336Zm17.79-46.195v31.992h19.757c5.578 0 9.938-1.383 13.078-4.149 3.141-2.765 4.711-6.609 4.711-11.531 0-10.64-5.437-16.078-16.312-16.312h-21.234Zm0-13.078h17.437c5.531 0 9.844-1.243 12.938-3.727 3.14-2.531 4.71-6.094 4.71-10.688 0-5.062-1.453-8.718-4.359-10.968-2.859-2.25-7.336-3.375-13.43-3.375h-17.296v28.758Zm88.138 59.273h-17.086v-108h17.086v108Zm14.028-38.742c0-7.453 1.477-14.156 4.43-20.11 2.953-6 7.102-10.593 12.445-13.781 5.344-3.234 11.485-4.851 18.422-4.851 10.266 0 18.586 3.304 24.961 9.914 6.422 6.609 9.891 15.375 10.406 26.297l.071 4.007c0 7.5-1.453 14.204-4.36 20.11-2.859 5.906-6.984 10.476-12.375 13.711-5.343 3.234-11.531 4.851-18.562 4.851-10.734 0-19.336-3.562-25.805-10.687-6.422-7.172-9.633-16.711-9.633-28.617v-.844Zm17.086 1.476c0 7.828 1.618 13.969 4.852 18.422 3.234 4.406 7.734 6.61 13.5 6.61s10.242-2.25 13.43-6.75c3.234-4.5 4.851-11.086 4.851-19.758 0-7.688-1.664-13.781-4.992-18.281-3.281-4.5-7.758-6.75-13.43-6.75-5.578 0-10.008 2.226-13.289 6.679-3.281 4.406-4.922 11.016-4.922 19.828Zm97.912 25.032c4.266 0 7.805-1.243 10.617-3.727 2.813-2.484 4.313-5.555 4.5-9.211h16.102c-.188 4.734-1.664 9.164-4.43 13.289-2.766 4.078-6.516 7.313-11.25 9.703-4.734 2.391-9.844 3.586-15.328 3.586-10.641 0-19.078-3.445-25.313-10.336-6.234-6.89-9.351-16.406-9.351-28.547v-1.757c0-11.578 3.094-20.836 9.281-27.774 6.188-6.984 14.625-10.476 25.313-10.476 9.046 0 16.406 2.648 22.078 7.945 5.718 5.25 8.718 12.164 9 20.742h-16.102c-.187-4.359-1.687-7.945-4.5-10.758-2.766-2.812-6.305-4.218-10.617-4.218-5.531 0-9.797 2.015-12.797 6.046-3 3.985-4.523 10.055-4.57 18.211v2.743c0 8.25 1.476 14.414 4.429 18.492 3 4.031 7.313 6.047 12.938 6.047Zm67.399-20.391-7.6 7.805v24.82h-17.08v-108h17.08v62.297l5.35-6.68 21.02-23.695h20.53l-28.26 31.711 31.29 44.367h-19.76l-22.57-32.625Z"/>
    <path fill="#29A3D0"
          d="M1079.7 269.5c1.6 0 2.83.457 3.69 1.371.87.891 1.31 2.016 1.31 3.375 0 1.336-.44 2.449-1.31 3.34-.86.867-2.09 1.301-3.69 1.301-1.52 0-2.73-.434-3.62-1.301-.89-.867-1.33-1.981-1.33-3.34 0-1.359.43-2.484 1.3-3.375.86-.914 2.08-1.371 3.65-1.371Zm12.47-10.371c0-3.727.74-7.078 2.21-10.055 1.48-3 3.55-5.297 6.22-6.89 2.68-1.618 5.75-2.426 9.22-2.426 5.13 0 9.29 1.652 12.48 4.957 3.21 3.305 4.94 7.687 5.2 13.148l.03 2.004c0 3.75-.72 7.102-2.18 10.055-1.43 2.953-3.49 5.238-6.18 6.855-2.68 1.618-5.77 2.426-9.28 2.426-5.37 0-9.67-1.781-12.91-5.344-3.21-3.586-4.81-8.355-4.81-14.308v-.422Zm8.54.738c0 3.914.81 6.985 2.43 9.211 1.61 2.203 3.86 3.305 6.75 3.305 2.88 0 5.12-1.125 6.71-3.375 1.62-2.25 2.43-5.543 2.43-9.879 0-3.844-.84-6.891-2.5-9.141-1.64-2.25-3.88-3.375-6.71-3.375-2.79 0-5.01 1.114-6.65 3.34-1.64 2.203-2.46 5.508-2.46 9.914Zm53.24-11.601c-1.12-.188-2.28-.282-3.48-.282-3.91 0-6.55 1.5-7.91 4.5V278.5h-8.54v-38.039h8.16l.21 4.254c2.06-3.305 4.92-4.957 8.58-4.957 1.22 0 2.22.164 3.02.492l-.04 8.016Zm2.48 10.933c0-5.906 1.39-10.617 4.15-14.133 2.79-3.539 6.48-5.308 11.08-5.308 4.33 0 7.74 1.512 10.23 4.535l.38-3.832h7.7v36.879c0 4.992-1.56 8.93-4.67 11.812-3.1 2.883-7.28 4.325-12.55 4.325-2.79 0-5.52-.586-8.2-1.758-2.64-1.149-4.66-2.66-6.04-4.535l4.04-5.133c2.63 3.117 5.86 4.676 9.7 4.676 2.84 0 5.08-.774 6.72-2.321 1.64-1.523 2.46-3.773 2.46-6.75v-2.566c-2.46 2.742-5.74 4.113-9.84 4.113-4.46 0-8.1-1.769-10.94-5.308-2.81-3.54-4.22-8.438-4.22-14.696Zm8.51.739c0 3.82.77 6.832 2.32 9.035 1.57 2.179 3.74 3.269 6.51 3.269 3.44 0 6-1.476 7.66-4.43v-16.734c-1.62-2.883-4.15-4.324-7.59-4.324-2.82 0-5.01 1.113-6.58 3.34-1.55 2.226-2.32 5.508-2.32 9.844Z"/>
    <path fill="#fff"
          d="M530.094 311.492h-7.981V333.5h-4.412v-22.008h-7.91v-3.586h20.303v3.586Zm6.812 5.063c1.394-1.617 3.158-2.426 5.291-2.426 4.054 0 6.111 2.314 6.17 6.943V333.5h-4.272v-12.27c0-1.312-.287-2.238-.861-2.777-.563-.551-1.395-.826-2.496-.826-1.711 0-2.989.762-3.832 2.285V333.5h-4.272v-27h4.272v10.055Zm23.81 17.297c-2.707 0-4.905-.85-6.592-2.549-1.676-1.711-2.514-3.985-2.514-6.821v-.527c0-1.898.363-3.592 1.09-5.08.738-1.5 1.769-2.666 3.094-3.498 1.324-.832 2.8-1.248 4.429-1.248 2.59 0 4.588.826 5.994 2.478 1.418 1.653 2.127 3.991 2.127 7.014v1.723h-12.427c.129 1.57.65 2.812 1.564 3.726.926.914 2.086 1.371 3.481 1.371 1.957 0 3.55-.791 4.781-2.373l2.303 2.198c-.762 1.136-1.782 2.021-3.059 2.654-1.266.621-2.689.932-4.271.932Zm-.51-16.295c-1.172 0-2.121.41-2.848 1.23-.715.82-1.172 1.963-1.371 3.428h8.139v-.317c-.094-1.429-.475-2.507-1.143-3.234-.668-.738-1.594-1.107-2.777-1.107Zm30.375 10.775c0-.762-.316-1.342-.949-1.74-.621-.399-1.658-.75-3.111-1.055-1.453-.305-2.666-.691-3.639-1.16-2.133-1.031-3.199-2.525-3.199-4.482 0-1.641.691-3.012 2.074-4.114 1.383-1.101 3.141-1.652 5.274-1.652 2.273 0 4.107.562 5.502 1.687 1.406 1.125 2.109 2.584 2.109 4.377h-4.271c0-.82-.305-1.5-.915-2.039-.609-.55-1.417-.826-2.425-.826-.938 0-1.705.217-2.303.651-.586.433-.879 1.013-.879 1.74 0 .656.275 1.166.826 1.529.551.363 1.664.732 3.34 1.107 1.676.364 2.988.803 3.938 1.319.961.504 1.669 1.113 2.127 1.828.468.715.703 1.582.703 2.602 0 1.71-.709 3.099-2.127 4.166-1.418 1.054-3.276 1.582-5.573 1.582-1.558 0-2.947-.282-4.166-.844-1.218-.563-2.168-1.336-2.847-2.32-.68-.985-1.02-2.045-1.02-3.182h4.149c.058 1.008.439 1.787 1.142 2.338.703.539 1.635.808 2.795.808 1.125 0 1.981-.211 2.567-.632.586-.434.878-.997.878-1.688Zm12.121 5.168h-4.272v-19.02h4.272v19.02Zm-4.535-23.959c0-.656.205-1.201.615-1.635.422-.433 1.02-.65 1.793-.65.773 0 1.371.217 1.793.65.422.434.633.979.633 1.635 0 .645-.211 1.184-.633 1.617-.422.422-1.02.633-1.793.633-.773 0-1.371-.211-1.793-.633-.41-.433-.615-.972-.615-1.617Zm12.806 4.939.123 2.198c1.406-1.699 3.252-2.549 5.537-2.549 3.961 0 5.977 2.267 6.047 6.803V333.5h-4.272v-12.322c0-1.207-.263-2.098-.791-2.672-.515-.586-1.365-.879-2.548-.879-1.723 0-3.006.779-3.85 2.338V333.5h-4.272v-19.02h4.026Zm14.968 9.37c0-2.954.691-5.309 2.074-7.067 1.395-1.769 3.24-2.654 5.537-2.654 2.168 0 3.873.756 5.116 2.267l.193-1.916h3.849v18.44c0 2.496-.779 4.465-2.337 5.906-1.547 1.442-3.639 2.162-6.276 2.162-1.394 0-2.76-.293-4.096-.879-1.324-.574-2.332-1.33-3.023-2.267l2.022-2.567c1.312 1.559 2.929 2.338 4.851 2.338 1.418 0 2.537-.386 3.358-1.16.82-.762 1.23-1.887 1.23-3.375v-1.283c-1.23 1.371-2.871 2.057-4.922 2.057-2.226 0-4.049-.885-5.467-2.655-1.406-1.769-2.109-4.218-2.109-7.347Zm4.254.369c0 1.91.387 3.416 1.16 4.517.785 1.09 1.869 1.635 3.252 1.635 1.723 0 3-.738 3.832-2.215v-8.367c-.809-1.441-2.074-2.162-3.797-2.162-1.406 0-2.502.557-3.287 1.67-.773 1.113-1.16 2.754-1.16 4.922Zm21.103 9.281h-4.272v-27h4.272v27Zm12.683.352c-2.707 0-4.905-.85-6.592-2.549-1.676-1.711-2.514-3.985-2.514-6.821v-.527c0-1.898.364-3.592 1.09-5.08.738-1.5 1.77-2.666 3.094-3.498 1.324-.832 2.801-1.248 4.43-1.248 2.589 0 4.587.826 5.994 2.478 1.418 1.653 2.127 3.991 2.127 7.014v1.723h-12.428c.129 1.57.65 2.812 1.564 3.726.926.914 2.086 1.371 3.481 1.371 1.957 0 3.551-.791 4.781-2.373l2.303 2.198c-.762 1.136-1.781 2.021-3.059 2.654-1.265.621-2.689.932-4.271.932Zm-.51-16.295c-1.172 0-2.121.41-2.848 1.23-.715.82-1.172 1.963-1.371 3.428h8.139v-.317c-.094-1.429-.475-2.507-1.143-3.234-.668-.738-1.593-1.107-2.777-1.107Zm30.376 10.775c0-.762-.317-1.342-.95-1.74-.621-.399-1.658-.75-3.111-1.055-1.453-.305-2.666-.691-3.639-1.16-2.132-1.031-3.199-2.525-3.199-4.482 0-1.641.692-3.012 2.074-4.114 1.383-1.101 3.141-1.652 5.274-1.652 2.273 0 4.107.562 5.502 1.687 1.406 1.125 2.109 2.584 2.109 4.377h-4.271c0-.82-.305-1.5-.914-2.039-.61-.55-1.418-.826-2.426-.826-.938 0-1.705.217-2.303.651-.586.433-.879 1.013-.879 1.74 0 .656.276 1.166.826 1.529.551.363 1.664.732 3.34 1.107 1.676.364 2.989.803 3.938 1.319.961.504 1.67 1.113 2.127 1.828.468.715.703 1.582.703 2.602 0 1.71-.709 3.099-2.127 4.166-1.418 1.054-3.276 1.582-5.572 1.582-1.559 0-2.948-.282-4.166-.844-1.219-.563-2.168-1.336-2.848-2.32-.68-.985-1.02-2.045-1.02-3.182h4.149c.058 1.008.439 1.787 1.142 2.338.704.539 1.635.808 2.795.808 1.125 0 1.981-.211 2.567-.632.586-.434.879-.997.879-1.688Zm6.776-4.518c0-1.863.369-3.539 1.108-5.027.738-1.5 1.775-2.648 3.111-3.445 1.336-.809 2.871-1.213 4.606-1.213 2.566 0 4.646.826 6.24 2.478 1.605 1.653 2.472 3.844 2.601 6.575l.018 1.002c0 1.875-.363 3.55-1.09 5.027-.715 1.477-1.746 2.619-3.094 3.428-1.336.808-2.882 1.213-4.64 1.213-2.684 0-4.834-.891-6.451-2.672-1.606-1.793-2.409-4.178-2.409-7.155v-.211Zm4.272.37c0 1.957.404 3.492 1.213 4.605.808 1.102 1.933 1.652 3.375 1.652 1.441 0 2.56-.562 3.357-1.687.809-1.125 1.213-2.772 1.213-4.94 0-1.921-.416-3.445-1.248-4.57-.82-1.125-1.939-1.687-3.357-1.687-1.395 0-2.502.556-3.323 1.67-.82 1.101-1.23 2.753-1.23 4.957Zm28.187 7.453c-1.254 1.476-3.035 2.215-5.344 2.215-2.063 0-3.627-.604-4.693-1.811-1.055-1.207-1.582-2.953-1.582-5.238V314.48h4.271v12.27c0 2.414 1.002 3.621 3.006 3.621 2.074 0 3.475-.744 4.201-2.232V314.48h4.272v19.02h-4.026l-.105-1.863Zm18.079-13.254c-.562-.094-1.142-.141-1.74-.141-1.957 0-3.275.75-3.955 2.25V333.5h-4.272v-19.02h4.079l.105 2.127c1.031-1.652 2.461-2.478 4.289-2.478.609 0 1.113.082 1.512.246l-.018 4.008Zm9.8 12.058c1.067 0 1.952-.31 2.655-.931.703-.621 1.078-1.389 1.125-2.303h4.025c-.047 1.184-.416 2.291-1.107 3.322-.692 1.02-1.629 1.828-2.813 2.426-1.183.598-2.461.897-3.832.897-2.66 0-4.769-.862-6.328-2.584-1.559-1.723-2.338-4.102-2.338-7.137v-.44c0-2.894.773-5.209 2.32-6.943 1.547-1.746 3.657-2.619 6.328-2.619 2.262 0 4.102.662 5.52 1.986 1.43 1.313 2.18 3.041 2.25 5.186h-4.025c-.047-1.09-.422-1.987-1.125-2.69-.692-.703-1.577-1.054-2.655-1.054-1.382 0-2.449.504-3.199 1.511-.75.996-1.131 2.514-1.142 4.553v.686c0 2.062.369 3.603 1.107 4.623.75 1.008 1.828 1.511 3.234 1.511Zm19.047 3.411c-2.707 0-4.905-.85-6.592-2.549-1.676-1.711-2.514-3.985-2.514-6.821v-.527c0-1.898.363-3.592 1.09-5.08.738-1.5 1.769-2.666 3.094-3.498 1.324-.832 2.8-1.248 4.429-1.248 2.59 0 4.588.826 5.995 2.478 1.417 1.653 2.126 3.991 2.126 7.014v1.723h-12.427c.129 1.57.65 2.812 1.564 3.726.926.914 2.086 1.371 3.481 1.371 1.957 0 3.55-.791 4.781-2.373l2.303 2.198c-.762 1.136-1.782 2.021-3.059 2.654-1.266.621-2.689.932-4.271.932Zm-.51-16.295c-1.172 0-2.121.41-2.848 1.23-.715.82-1.172 1.963-1.371 3.428h8.139v-.317c-.094-1.429-.475-2.507-1.143-3.234-.668-.738-1.594-1.107-2.777-1.107Zm21.217 15.943v-15.855h-2.9v-3.165h2.9v-1.74c0-2.109.586-3.738 1.758-4.886 1.172-1.149 2.813-1.723 4.922-1.723.75 0 1.547.105 2.391.316l-.106 3.34c-.469-.094-1.014-.141-1.635-.141-2.039 0-3.058 1.049-3.058 3.147v1.687h3.867v3.165h-3.867V333.5h-4.272Zm10.099-9.686c0-1.863.369-3.539 1.108-5.027.738-1.5 1.775-2.648 3.111-3.445 1.336-.809 2.871-1.213 4.606-1.213 2.566 0 4.646.826 6.24 2.478 1.605 1.653 2.472 3.844 2.601 6.575l.018 1.002c0 1.875-.363 3.55-1.09 5.027-.715 1.477-1.746 2.619-3.094 3.428-1.336.808-2.883 1.213-4.64 1.213-2.684 0-4.834-.891-6.451-2.672-1.606-1.793-2.409-4.178-2.409-7.155v-.211Zm4.272.37c0 1.957.404 3.492 1.213 4.605.808 1.102 1.933 1.652 3.375 1.652 1.441 0 2.56-.562 3.357-1.687.809-1.125 1.213-2.772 1.213-4.94 0-1.921-.416-3.445-1.248-4.57-.82-1.125-1.94-1.687-3.357-1.687-1.395 0-2.502.556-3.323 1.67-.82 1.101-1.23 2.753-1.23 4.957Zm26.622-5.801c-.562-.094-1.142-.141-1.74-.141-1.957 0-3.275.75-3.955 2.25V333.5h-4.272v-19.02h4.079l.105 2.127c1.031-1.652 2.461-2.478 4.289-2.478.609 0 1.113.082 1.512.246l-.018 4.008Zm22.308 15.117c-.188-.363-.352-.955-.493-1.775-1.359 1.418-3.023 2.127-4.992 2.127-1.91 0-3.469-.545-4.676-1.635-1.207-1.09-1.81-2.438-1.81-4.043 0-2.028.75-3.58 2.25-4.658 1.512-1.09 3.668-1.635 6.469-1.635h2.619v-1.248c0-.985-.276-1.77-.826-2.356-.551-.597-1.389-.896-2.514-.896-.973 0-1.77.246-2.391.738-.621.481-.931 1.096-.931 1.846h-4.272c0-1.043.346-2.016 1.037-2.918.692-.914 1.629-1.629 2.813-2.145 1.195-.515 2.525-.773 3.99-.773 2.227 0 4.002.562 5.326 1.687 1.324 1.114 2.004 2.684 2.039 4.711v8.578c0 1.711.24 3.077.721 4.096v.299h-4.359Zm-4.694-3.076c.844 0 1.635-.205 2.373-.615.75-.411 1.313-.961 1.688-1.653v-3.586h-2.303c-1.582 0-2.771.276-3.568.826-.797.551-1.196 1.331-1.196 2.338 0 .821.27 1.477.809 1.969.551.481 1.283.721 2.197.721Zm16.99 3.076h-4.272v-27h4.272v27Zm8.851 0h-4.272v-27h4.272v27Zm13.325 0v-25.594h7.558c2.262 0 4.266.504 6.012 1.512 1.758 1.008 3.117 2.437 4.078 4.289.961 1.852 1.442 3.973 1.442 6.363v1.284c0 2.425-.487 4.558-1.459 6.398-.961 1.84-2.338 3.258-4.131 4.254-1.782.996-3.827 1.494-6.135 1.494h-7.365Zm4.447-22.008v18.457h2.9c2.332 0 4.119-.726 5.362-2.179 1.254-1.465 1.892-3.563 1.916-6.293v-1.424c0-2.778-.604-4.899-1.811-6.364-1.207-1.464-2.959-2.197-5.256-2.197h-3.111Zm22.843 22.008h-4.271v-19.02h4.271v19.02Zm-4.535-23.959c0-.656.205-1.201.615-1.635.422-.433 1.02-.65 1.793-.65.774 0 1.371.217 1.793.65.422.434.633.979.633 1.635 0 .645-.211 1.184-.633 1.617-.422.422-1.019.633-1.793.633-.773 0-1.371-.211-1.793-.633-.41-.433-.615-.972-.615-1.617Zm19.503 18.791c0-.762-.316-1.342-.949-1.74-.621-.399-1.658-.75-3.111-1.055-1.453-.305-2.666-.691-3.639-1.16-2.133-1.031-3.199-2.525-3.199-4.482 0-1.641.691-3.012 2.074-4.114 1.383-1.101 3.141-1.652 5.273-1.652 2.274 0 4.108.562 5.502 1.687 1.407 1.125 2.11 2.584 2.11 4.377h-4.272c0-.82-.304-1.5-.914-2.039-.609-.55-1.418-.826-2.426-.826-.937 0-1.705.217-2.302.651-.586.433-.879 1.013-.879 1.74 0 .656.275 1.166.826 1.529.551.363 1.664.732 3.34 1.107 1.676.364 2.988.803 3.937 1.319.961.504 1.67 1.113 2.127 1.828.469.715.703 1.582.703 2.602 0 1.71-.709 3.099-2.127 4.166-1.418 1.054-3.275 1.582-5.572 1.582-1.558 0-2.947-.282-4.166-.844-1.219-.563-2.168-1.336-2.848-2.32-.679-.985-1.019-2.045-1.019-3.182h4.148c.059 1.008.44 1.787 1.143 2.338.703.539 1.635.808 2.795.808 1.125 0 1.98-.211 2.566-.632.586-.434.879-.997.879-1.688Zm15.39 2.109c1.067 0 1.951-.31 2.654-.931.704-.621 1.079-1.389 1.125-2.303h4.026c-.047 1.184-.416 2.291-1.108 3.322-.691 1.02-1.628 1.828-2.812 2.426-1.184.598-2.461.897-3.832.897-2.66 0-4.77-.862-6.328-2.584-1.559-1.723-2.338-4.102-2.338-7.137v-.44c0-2.894.773-5.209 2.32-6.943 1.547-1.746 3.656-2.619 6.328-2.619 2.262 0 4.102.662 5.52 1.986 1.43 1.313 2.18 3.041 2.25 5.186h-4.026c-.046-1.09-.421-1.987-1.125-2.69-.691-.703-1.576-1.054-2.654-1.054-1.383 0-2.449.504-3.199 1.511-.75.996-1.131 2.514-1.143 4.553v.686c0 2.062.37 3.603 1.108 4.623.75 1.008 1.828 1.511 3.234 1.511Zm9.871-6.627c0-1.863.369-3.539 1.107-5.027.738-1.5 1.775-2.648 3.111-3.445 1.336-.809 2.871-1.213 4.606-1.213 2.566 0 4.646.826 6.24 2.478 1.606 1.653 2.473 3.844 2.602 6.575l.017 1.002c0 1.875-.363 3.55-1.09 5.027-.714 1.477-1.746 2.619-3.093 3.428-1.336.808-2.883 1.213-4.641 1.213-2.684 0-4.834-.891-6.451-2.672-1.606-1.793-2.408-4.178-2.408-7.155v-.211Zm4.271.37c0 1.957.404 3.492 1.213 4.605.809 1.102 1.934 1.652 3.375 1.652s2.561-.562 3.357-1.687c.809-1.125 1.213-2.772 1.213-4.94 0-1.921-.416-3.445-1.248-4.57-.82-1.125-1.939-1.687-3.357-1.687-1.395 0-2.502.556-3.322 1.67-.821 1.101-1.231 2.753-1.231 4.957Zm26.623-5.801c-.563-.094-1.143-.141-1.741-.141-1.957 0-3.275.75-3.955 2.25V333.5h-4.271v-19.02h4.078l.105 2.127c1.032-1.652 2.461-2.478 4.289-2.478.61 0 1.114.082 1.512.246l-.017 4.008Zm1.186 5.467c0-2.93.68-5.28 2.043-7.049 1.36-1.781 3.18-2.672 5.46-2.672 2.02 0 3.65.703 4.89 2.109V306.5h4.27v27h-3.87l-.21-1.969c-1.27 1.547-2.98 2.321-5.11 2.321-2.23 0-4.03-.897-5.42-2.69-1.367-1.793-2.053-4.23-2.053-7.312Zm4.273.369c0 1.933.37 3.445 1.11 4.535.75 1.078 1.81 1.617 3.18 1.617 1.74 0 3.02-.779 3.83-2.338v-8.121c-.79-1.523-2.05-2.285-3.8-2.285-1.38 0-2.45.551-3.2 1.652-.75 1.09-1.12 2.737-1.12 4.94Zm41.78-.035c0 2.953-.66 5.302-1.98 7.048-1.32 1.747-3.13 2.62-5.44 2.62-2.22 0-3.96-.803-5.2-2.409l-.21 2.057h-3.87v-27h4.28v9.809c1.23-1.454 2.88-2.18 4.97-2.18 2.32 0 4.14.861 5.47 2.584 1.32 1.723 1.98 4.131 1.98 7.225v.246Zm-4.27-.37c0-2.062-.36-3.609-1.09-4.64-.73-1.031-1.78-1.547-3.16-1.547-1.85 0-3.15.809-3.9 2.426v7.84c.76 1.652 2.07 2.478 3.93 2.478 1.34 0 2.37-.498 3.1-1.494.72-.996 1.1-2.502 1.12-4.518v-.545Zm6.71 0c0-1.863.37-3.539 1.11-5.027.73-1.5 1.77-2.648 3.11-3.445 1.33-.809 2.87-1.213 4.6-1.213 2.57 0 4.65.826 6.24 2.478 1.61 1.653 2.47 3.844 2.6 6.575l.02 1.002c0 1.875-.36 3.55-1.09 5.027-.71 1.477-1.74 2.619-3.09 3.428-1.34.808-2.89 1.213-4.64 1.213-2.69 0-4.84-.891-6.45-2.672-1.61-1.793-2.41-4.178-2.41-7.155v-.211Zm4.27.37c0 1.957.4 3.492 1.21 4.605.81 1.102 1.94 1.652 3.38 1.652s2.56-.562 3.35-1.687c.81-1.125 1.22-2.772 1.22-4.94 0-1.921-.42-3.445-1.25-4.57-.82-1.125-1.94-1.687-3.36-1.687-1.39 0-2.5.556-3.32 1.67-.82 1.101-1.23 2.753-1.23 4.957Zm22.02-14.327v4.623h3.35v3.165h-3.35v10.617c0 .726.14 1.254.42 1.582.29.316.81.474 1.54.474.5 0 1-.058 1.5-.175v3.304c-.97.27-1.91.405-2.81.405-3.28 0-4.93-1.811-4.93-5.432v-10.775h-3.12v-3.165h3.12v-4.623h4.28Zm19.42 23.643h-4.27v-27h4.27v27Zm8.85 0h-4.27v-19.02h4.27v19.02Zm-4.53-23.959c0-.656.2-1.201.61-1.635.42-.433 1.02-.65 1.79-.65.78 0 1.38.217 1.8.65.42.434.63.979.63 1.635 0 .645-.21 1.184-.63 1.617-.42.422-1.02.633-1.8.633-.77 0-1.37-.211-1.79-.633-.41-.433-.61-.972-.61-1.617Zm19.5 18.791c0-.762-.32-1.342-.95-1.74-.62-.399-1.66-.75-3.11-1.055-1.45-.305-2.67-.691-3.64-1.16-2.13-1.031-3.2-2.525-3.2-4.482 0-1.641.69-3.012 2.08-4.114 1.38-1.101 3.14-1.652 5.27-1.652 2.27 0 4.11.562 5.5 1.687 1.41 1.125 2.11 2.584 2.11 4.377h-4.27c0-.82-.31-1.5-.92-2.039-.6-.55-1.41-.826-2.42-.826-.94 0-1.71.217-2.3.651-.59.433-.88 1.013-.88 1.74 0 .656.27 1.166.82 1.529.55.363 1.67.732 3.34 1.107 1.68.364 2.99.803 3.94 1.319.96.504 1.67 1.113 2.13 1.828.47.715.7 1.582.7 2.602 0 1.71-.71 3.099-2.13 4.166-1.41 1.054-3.27 1.582-5.57 1.582-1.56 0-2.95-.282-4.16-.844-1.22-.563-2.17-1.336-2.85-2.32-.68-.985-1.02-2.045-1.02-3.182h4.15c.06 1.008.44 1.787 1.14 2.338.7.539 1.63.808 2.79.808 1.13 0 1.98-.211 2.57-.632.59-.434.88-.997.88-1.688Zm12.93-18.475v4.623h3.36v3.165h-3.36v10.617c0 .726.14 1.254.42 1.582.29.316.81.474 1.55.474.49 0 .99-.058 1.49-.175v3.304c-.97.27-1.91.405-2.81.405-3.28 0-4.92-1.811-4.92-5.432v-10.775h-3.13v-3.165h3.13v-4.623h4.27Zm16.94 18.475c0-.762-.32-1.342-.95-1.74-.62-.399-1.66-.75-3.11-1.055-1.46-.305-2.67-.691-3.64-1.16-2.14-1.031-3.2-2.525-3.2-4.482 0-1.641.69-3.012 2.07-4.114 1.38-1.101 3.14-1.652 5.27-1.652 2.28 0 4.11.562 5.51 1.687 1.4 1.125 2.11 2.584 2.11 4.377h-4.28c0-.82-.3-1.5-.91-2.039-.61-.55-1.42-.826-2.43-.826-.93 0-1.7.217-2.3.651-.58.433-.88 1.013-.88 1.74 0 .656.28 1.166.83 1.529.55.363 1.66.732 3.34 1.107 1.68.364 2.99.803 3.94 1.319.96.504 1.67 1.113 2.12 1.828.47.715.71 1.582.71 2.602 0 1.71-.71 3.099-2.13 4.166-1.42 1.054-3.28 1.582-5.57 1.582-1.56 0-2.95-.282-4.17-.844-1.22-.563-2.17-1.336-2.85-2.32-.68-.985-1.02-2.045-1.02-3.182h4.15c.06 1.008.44 1.787 1.15 2.338.7.539 1.63.808 2.79.808 1.13 0 1.98-.211 2.57-.632.58-.434.88-.997.88-1.688Zm10.24.668c.79 0 1.41.229 1.84.686.43.445.65 1.007.65 1.687 0 .668-.22 1.225-.65 1.67-.43.434-1.05.65-1.84.65-.77 0-1.37-.216-1.82-.65-.44-.434-.66-.99-.66-1.67 0-.68.21-1.242.65-1.687.43-.457 1.04-.686 1.83-.686Z"/>
</svg>
