<svg xmlns="http://www.w3.org/2000/svg" fill="none" viewBox="0 0 1500 1500">
    <g clip-path="url(#a)">
        <path fill="#29A3D0" d="M0 0h2400v2400H0z"/>
        <path fill="#000" fill-opacity=".8" d="M0 0h2400v2400H0z" style="mix-blend-mode:darken"/>
        <path stroke="#fff" stroke-opacity=".2" stroke-width="8.73786"
              d="M199.533 24.7573v32.0388M83.9461 195.475l22.46639114 26.77440235-26.77662388 22.46825523-22.46639114-26.77440236zM24.3765 406.129l31.9169-2.792"/>
        <circle cx="395.407" cy="86.6505" r="28.3981" stroke="#fff" stroke-opacity=".2" stroke-width="8.73786"/>
        <path stroke="#fff" stroke-opacity=".2" stroke-width="8.73786" d="m635.887 144.876 49.515 32.039"/>
        <circle cx="435.455" cy="300" r="7.28155" stroke="#fff" stroke-opacity=".2" stroke-width="8.73786"/>
        <path stroke="#fff" stroke-opacity=".2" stroke-width="8.73786"
              d="m263.858 476.765-42.006 39.655 3.376-57.668 38.63 18.013Zm19.944 247.977 44.624-37.444M130.171 816.323l23.07423627-3.24287243 8.91789221 63.45410023-23.07423627 3.24287243z"/>
        <circle cx="58.271" cy="1098.06" r="4.36893" stroke="#fff" stroke-opacity=".2" stroke-width="8.73786"/>
        <path stroke="#fff" stroke-opacity=".2" stroke-width="8.73786"
              d="m508.082 555.991 13.85033115 4.5002454-4.50024539 13.85033114-13.85033115-4.50024539zm46.791 173.621v61.165h-61.165M384.305 1002.81l-3.647-12.215 12.743-.082 3.647 12.207-12.743.09Zm278.13-602.571 21.414-37.227 28.687 31.961-21.415 37.226-28.686-31.96Zm326.878-258.977 34.487-57.1267v57.1267h-34.487Zm-32.541 172.693 8.107 57.686m-96.764 172.915-3.317 6.801-4.232-6.273 7.549-.528Zm278.645-33.691c-5.5-15.116-22.22-22.91-37.33-17.408-15.12 5.502-22.91 22.215-17.41 37.331M855.69 726.742l29.452-5.193 19.224 22.91-10.229 28.103-29.452 5.193-19.224-22.91 10.229-28.103ZM713.55 872.67l.896-4.991 3.135 3.986-4.031 1.005Zm-8.573 182.13-17.459 31.04-22.583-27.53 40.042-3.51Zm246.079-111.393 43.669 40.721"/>
        <circle cx="1054.39" cy="1068.93" r="16.0194" stroke="#fff" stroke-opacity=".2" stroke-width="8.73786"/>
        <path fill="#fff" fill-opacity=".2"
              d="m1122.83 744.175-14.56 2.912-1.46 30.583 7.29-1.456-1.46 30.582 14.56-42.233-8.73 1.456 4.36-21.844Z"/>
        <path stroke="#fff" stroke-opacity=".2" stroke-width="8.73786"
              d="M1399.53 24.7573v32.0388M1283.95 195.475l22.46639114 26.77440235-26.77662388 22.46825523-22.46639114-26.77440236zm-59.57 210.654 31.91-2.792m207.57 73.428-42.01 39.655 3.38-57.668 38.63 18.013Zm19.94 247.977 44.63-37.444m-198.26 129.025 23.07423627-3.24287243 8.91789221 63.45410023-23.07423627 3.24287243z"/>
        <circle cx="1258.27" cy="1098.06" r="4.36893" stroke="#fff" stroke-opacity=".2" stroke-width="8.73786"/>
        <path stroke="#fff" stroke-opacity=".2" stroke-width="8.73786"
              d="M199.533 1224.76v32.04M83.9461 1395.48l22.46639114 26.77440235-26.77662388 22.46825523-22.46639114-26.77440236z"/>
        <circle cx="395.407" cy="1286.65" r="28.3981" stroke="#fff" stroke-opacity=".2" stroke-width="8.73786"/>
        <path stroke="#fff" stroke-opacity=".2" stroke-width="8.73786" d="m635.887 1344.88 49.515 32.03"/>
        <circle cx="435.455" cy="1500" r="7.28155" stroke="#fff" stroke-opacity=".2" stroke-width="8.73786"/>
        <path stroke="#fff" stroke-opacity=".2" stroke-width="8.73786"
              d="m989.313 1341.26 34.487-57.12v57.12h-34.487Zm410.217-116.5v32.04m-115.58 138.68 22.46639114 26.77440235-26.77662388 22.46825523-22.46639114-26.77440236z"/>
        <path fill="#359DC4" stroke="#000" stroke-width="32"
              d="M618.282 1072.89h647.438c2.82 0 5.49.52 8.31 2.03 2.96 1.58 5.37 3.99 6.95 6.94 1.5 2.82 2.02 5.49 2.02 8.32v264.71H601v-264.71c0-2.83.516-5.5 2.025-8.32 1.578-2.95 3.99-5.36 6.941-6.94 2.82-1.51 5.494-2.03 8.316-2.03ZM832 987.771H702c-.552 0-1 .448-1 1v79.999c0 .55.448 1 1 1h130c.552 0 1-.45 1-1v-79.999c0-.552-.448-1-1-1Zm350 0h-130c-.55 0-1 .448-1 1v79.999c0 .55.45 1 1 1h130c.55 0 1-.45 1-1v-79.999c0-.552-.45-1-1-1Z"/>
        <path fill="#D56FAC" stroke="#000" stroke-width="32"
              d="M415 987.771H285c-.552 0-1 .448-1 1v79.999c0 .55.448 1 1 1h130c.552 0 1-.45 1-1v-79.999c0-.552-.448-1-1-1Zm-226.718 85.119h322.436c2.822 0 5.496.52 8.316 2.03 2.951 1.58 5.363 3.99 6.941 6.94 1.509 2.82 2.025 5.49 2.025 8.32v264.71H171v-264.71c0-2.83.516-5.5 2.025-8.32 1.578-2.95 3.99-5.36 6.941-6.94 2.82-1.51 5.494-2.03 8.316-2.03Z"/>
        <path fill="#967ADC" stroke="#000" stroke-width="32"
              d="M188.282 660.894h647.436c2.822 0 5.496.517 8.316 2.025 2.951 1.578 5.363 3.99 6.941 6.941 1.509 2.82 2.025 5.494 2.025 8.316v264.718H171V678.176c0-2.822.516-5.496 2.025-8.316 1.578-2.951 3.99-5.363 6.941-6.941 2.82-1.508 5.494-2.025 8.316-2.025Zm213.718-85H272c-.552 0-1 .448-1 1v80c0 .553.448 1 1 1h130c.552 0 1-.447 1-1v-80c0-.552-.448-1-1-1Zm350 0H622c-.552 0-1 .448-1 1v80c0 .553.448 1 1 1h130c.552 0 1-.447 1-1v-80c0-.552-.448-1-1-1Z"/>
        <path fill="#4FC0E9" stroke="#000" stroke-width="32"
              d="M754.305 174.727 1312.76 495.41c2.43 1.398 4.48 3.175 6.14 5.895 1.74 2.847 2.6 6.158 2.46 9.529-.13 3.221-1.05 5.823-2.48 8.299L1184.3 751.386 596.035 413.583l134.578-232.254c1.434-2.475 3.239-4.566 5.974-6.293 2.861-1.807 6.168-2.729 9.516-2.652 3.199.074 5.768.945 8.202 2.343Z"/>
        <path fill="#4FC0E9" stroke="#000" stroke-width="32"
              d="m978.566 209.154-111.967-64.245c-.475-.273-1.088-.103-1.368.381l-40.611 70.03c-.281.483-.122 1.096.353 1.369l111.967 64.245c.476.273 1.089.103 1.369-.381l40.611-70.029c.28-.484.122-1.097-.354-1.37Zm303.114 175-111.97-64.245c-.48-.273-1.09-.103-1.37.381l-40.61 70.03c-.28.483-.12 1.096.35 1.369l111.97 64.245c.47.273 1.09.103 1.37-.381l40.61-70.029c.28-.484.12-1.097-.35-1.37Z"/>
    </g>
    <defs>
        <clipPath id="a">
            <path fill="#fff" d="M0 0h1500v1500H0z"/>
        </clipPath>
    </defs>
</svg>
