<svg xmlns="http://www.w3.org/2000/svg" fill="none" viewBox="0 0 1500 1500">
    <path fill="#359DC4" stroke="#000" stroke-width="32"
          d="M618.282 1072.89h647.438c2.82 0 5.49.52 8.31 2.03 2.96 1.58 5.37 3.99 6.95 6.94 1.5 2.82 2.02 5.49 2.02 8.32v264.71H601v-264.71c0-2.83.516-5.5 2.025-8.32 1.578-2.95 3.99-5.36 6.941-6.94 2.82-1.51 5.494-2.03 8.316-2.03ZM832 987.771H702c-.552 0-1 .448-1 1v79.999c0 .55.448 1 1 1h130c.552 0 1-.45 1-1v-79.999c0-.552-.448-1-1-1Zm350 0h-130c-.55 0-1 .448-1 1v79.999c0 .55.45 1 1 1h130c.55 0 1-.45 1-1v-79.999c0-.552-.45-1-1-1Z"/>
    <path fill="#D56FAC" stroke="#000" stroke-width="32"
          d="M415 987.771H285c-.552 0-1 .448-1 1v79.999c0 .55.448 1 1 1h130c.552 0 1-.45 1-1v-79.999c0-.552-.448-1-1-1Zm-226.718 85.119h322.436c2.822 0 5.496.52 8.316 2.03 2.951 1.58 5.363 3.99 6.941 6.94 1.509 2.82 2.025 5.49 2.025 8.32v264.71H171v-264.71c0-2.83.516-5.5 2.025-8.32 1.578-2.95 3.99-5.36 6.941-6.94 2.82-1.51 5.494-2.03 8.316-2.03Z"/>
    <path fill="#967ADC" stroke="#000" stroke-width="32"
          d="M188.282 660.894h647.436c2.822 0 5.496.517 8.316 2.025 2.951 1.578 5.363 3.99 6.941 6.941 1.509 2.82 2.025 5.494 2.025 8.316v264.718H171V678.176c0-2.822.516-5.496 2.025-8.316 1.578-2.951 3.99-5.363 6.941-6.941 2.82-1.508 5.494-2.025 8.316-2.025Zm213.718-85H272c-.552 0-1 .448-1 1v80c0 .553.448 1 1 1h130c.552 0 1-.447 1-1v-80c0-.552-.448-1-1-1Zm350 0H622c-.552 0-1 .448-1 1v80c0 .553.448 1 1 1h130c.552 0 1-.447 1-1v-80c0-.552-.448-1-1-1Z"/>
    <path fill="#4FC0E9" stroke="#000" stroke-width="32"
          d="M754.305 174.727 1312.76 495.41c2.43 1.398 4.48 3.175 6.14 5.895 1.74 2.847 2.6 6.158 2.46 9.529-.13 3.221-1.05 5.823-2.48 8.299L1184.3 751.386 596.035 413.583l134.578-232.254c1.434-2.475 3.239-4.566 5.974-6.293 2.861-1.807 6.168-2.729 9.516-2.652 3.199.074 5.768.945 8.202 2.343Z"/>
    <path fill="#4FC0E9" stroke="#000" stroke-width="32"
          d="M978.566 209.154 866.6 144.909c-.476-.273-1.089-.103-1.369.381l-40.611 70.03c-.28.483-.122 1.096.354 1.369l111.966 64.245c.476.273 1.089.103 1.369-.381l40.611-70.029c.28-.484.122-1.097-.354-1.37Zm303.114 175-111.97-64.245c-.48-.273-1.09-.103-1.37.381l-40.61 70.03c-.28.483-.12 1.096.35 1.369l111.97 64.245c.48.273 1.09.103 1.37-.381l40.61-70.029c.28-.484.12-1.097-.35-1.37Z"/>
</svg>
