<svg width="1500" height="1500" viewBox="0 0 1500 1500" fill="none" xmlns="http://www.w3.org/2000/svg">
<g clip-path="url(#clip0_2_316)">
<rect width="2400" height="2400" fill="#29A3D0"/>
<rect width="2400" height="2400" fill="black" fill-opacity="0.8" style="mix-blend-mode:darken"/>
<line x1="199.533" y1="24.7573" x2="199.533" y2="56.7961" stroke="white" stroke-opacity="0.2" stroke-width="8.73786"/>
<rect x="83.9461" y="195.475" width="34.9515" height="34.9544" transform="rotate(50 83.9461 195.475)" stroke="white" stroke-opacity="0.2" stroke-width="8.73786"/>
<line x1="24.3765" y1="406.129" x2="56.2934" y2="403.337" stroke="white" stroke-opacity="0.2" stroke-width="8.73786"/>
<circle cx="395.407" cy="86.6505" r="28.3981" stroke="white" stroke-opacity="0.2" stroke-width="8.73786"/>
<line x1="635.887" y1="144.876" x2="685.402" y2="176.915" stroke="white" stroke-opacity="0.2" stroke-width="8.73786"/>
<circle cx="435.455" cy="300" r="7.28155" stroke="white" stroke-opacity="0.2" stroke-width="8.73786"/>
<path d="M263.858 476.765L221.852 516.42L225.228 458.752L263.858 476.765Z" stroke="white" stroke-opacity="0.2" stroke-width="8.73786"/>
<line x1="283.802" y1="724.742" x2="328.426" y2="687.298" stroke="white" stroke-opacity="0.2" stroke-width="8.73786"/>
<rect x="130.171" y="816.323" width="23.301" height="64.0777" transform="rotate(-8 130.171 816.323)" stroke="white" stroke-opacity="0.2" stroke-width="8.73786"/>
<circle cx="58.271" cy="1098.06" r="4.36893" stroke="white" stroke-opacity="0.2" stroke-width="8.73786"/>
<rect x="508.082" y="555.991" width="14.5631" height="14.5631" transform="rotate(18 508.082 555.991)" stroke="white" stroke-opacity="0.2" stroke-width="8.73786"/>
<path d="M554.873 729.612V790.777H493.708" stroke="white" stroke-opacity="0.2" stroke-width="8.73786"/>
<path d="M384.305 1002.81L380.658 990.595L393.401 990.513L397.048 1002.72L384.305 1002.81Z" stroke="white" stroke-opacity="0.2" stroke-width="8.73786"/>
<path d="M662.435 400.239L683.849 363.012L712.536 394.973L691.121 432.199L662.435 400.239Z" stroke="white" stroke-opacity="0.2" stroke-width="8.73786"/>
<path d="M989.313 141.262L1023.8 84.1353V141.262H989.313Z" stroke="white" stroke-opacity="0.2" stroke-width="8.73786"/>
<line x1="956.772" y1="313.955" x2="964.879" y2="371.641" stroke="white" stroke-opacity="0.2" stroke-width="8.73786"/>
<path d="M868.115 544.556L864.798 551.357L860.566 545.084L868.115 544.556Z" stroke="white" stroke-opacity="0.2" stroke-width="8.73786"/>
<path d="M1146.76 510.865C1141.26 495.749 1124.54 487.955 1109.43 493.457C1094.31 498.959 1086.52 515.672 1092.02 530.788" stroke="white" stroke-opacity="0.2" stroke-width="8.73786"/>
<path d="M855.69 726.742L885.142 721.549L904.366 744.459L894.137 772.562L864.685 777.755L845.461 754.845L855.69 726.742Z" stroke="white" stroke-opacity="0.2" stroke-width="8.73786"/>
<path d="M713.55 872.67L714.446 867.679L717.581 871.665L713.55 872.67Z" stroke="white" stroke-opacity="0.2" stroke-width="8.73786"/>
<path d="M704.977 1054.8L687.518 1085.84L664.935 1058.31L704.977 1054.8Z" stroke="white" stroke-opacity="0.2" stroke-width="8.73786"/>
<line x1="951.056" y1="943.407" x2="994.725" y2="984.128" stroke="white" stroke-opacity="0.2" stroke-width="8.73786"/>
<circle cx="1054.39" cy="1068.93" r="16.0194" stroke="white" stroke-opacity="0.2" stroke-width="8.73786"/>
<path d="M1122.83 744.175L1108.27 747.087L1106.81 777.67L1114.1 776.214L1112.64 806.796L1127.2 764.563L1118.47 766.019L1122.83 744.175Z" fill="white" fill-opacity="0.2"/>
<line x1="1399.53" y1="24.7573" x2="1399.53" y2="56.7961" stroke="white" stroke-opacity="0.2" stroke-width="8.73786"/>
<rect x="1283.95" y="195.475" width="34.9515" height="34.9544" transform="rotate(50 1283.95 195.475)" stroke="white" stroke-opacity="0.2" stroke-width="8.73786"/>
<line x1="1224.38" y1="406.129" x2="1256.29" y2="403.337" stroke="white" stroke-opacity="0.2" stroke-width="8.73786"/>
<path d="M1463.86 476.765L1421.85 516.42L1425.23 458.752L1463.86 476.765Z" stroke="white" stroke-opacity="0.2" stroke-width="8.73786"/>
<line x1="1483.8" y1="724.742" x2="1528.43" y2="687.298" stroke="white" stroke-opacity="0.2" stroke-width="8.73786"/>
<rect x="1330.17" y="816.323" width="23.301" height="64.0777" transform="rotate(-8 1330.17 816.323)" stroke="white" stroke-opacity="0.2" stroke-width="8.73786"/>
<circle cx="1258.27" cy="1098.06" r="4.36893" stroke="white" stroke-opacity="0.2" stroke-width="8.73786"/>
<line x1="199.533" y1="1224.76" x2="199.533" y2="1256.8" stroke="white" stroke-opacity="0.2" stroke-width="8.73786"/>
<rect x="83.9461" y="1395.48" width="34.9515" height="34.9544" transform="rotate(50 83.9461 1395.48)" stroke="white" stroke-opacity="0.2" stroke-width="8.73786"/>
<circle cx="395.407" cy="1286.65" r="28.3981" stroke="white" stroke-opacity="0.2" stroke-width="8.73786"/>
<line x1="635.887" y1="1344.88" x2="685.402" y2="1376.91" stroke="white" stroke-opacity="0.2" stroke-width="8.73786"/>
<circle cx="435.455" cy="1500" r="7.28155" stroke="white" stroke-opacity="0.2" stroke-width="8.73786"/>
<path d="M989.313 1341.26L1023.8 1284.14V1341.26H989.313Z" stroke="white" stroke-opacity="0.2" stroke-width="8.73786"/>
<line x1="1399.53" y1="1224.76" x2="1399.53" y2="1256.8" stroke="white" stroke-opacity="0.2" stroke-width="8.73786"/>
<rect x="1283.95" y="1395.48" width="34.9515" height="34.9544" transform="rotate(50 1283.95 1395.48)" stroke="white" stroke-opacity="0.2" stroke-width="8.73786"/>
<path d="M618.282 1072.89H1265.72C1268.54 1072.89 1271.21 1073.41 1274.03 1074.92C1276.99 1076.5 1279.4 1078.91 1280.98 1081.86C1282.48 1084.68 1283 1087.35 1283 1090.18V1354.89H601V1090.18C601 1087.35 601.516 1084.68 603.025 1081.86C604.603 1078.91 607.015 1076.5 609.966 1074.92C612.786 1073.41 615.46 1072.89 618.282 1072.89Z" fill="#359DC4" stroke="black" stroke-width="32"/>
<path d="M832 987.771H702C701.448 987.771 701 988.219 701 988.771V1068.77C701 1069.32 701.448 1069.77 702 1069.77H832C832.552 1069.77 833 1069.32 833 1068.77V988.771C833 988.219 832.552 987.771 832 987.771Z" fill="#359DC4" stroke="black" stroke-width="32"/>
<path d="M1182 987.771H1052C1051.45 987.771 1051 988.219 1051 988.771V1068.77C1051 1069.32 1051.45 1069.77 1052 1069.77H1182C1182.55 1069.77 1183 1069.32 1183 1068.77V988.771C1183 988.219 1182.55 987.771 1182 987.771Z" fill="#359DC4" stroke="black" stroke-width="32"/>
<path d="M415 987.771H285C284.448 987.771 284 988.219 284 988.771V1068.77C284 1069.32 284.448 1069.77 285 1069.77H415C415.552 1069.77 416 1069.32 416 1068.77V988.771C416 988.219 415.552 987.771 415 987.771Z" fill="#D56FAC" stroke="black" stroke-width="32"/>
<path d="M188.282 1072.89H510.718C513.54 1072.89 516.214 1073.41 519.034 1074.92C521.985 1076.5 524.397 1078.91 525.975 1081.86C527.484 1084.68 528 1087.35 528 1090.18V1354.89H171V1090.18C171 1087.35 171.516 1084.68 173.025 1081.86C174.603 1078.91 177.015 1076.5 179.966 1074.92C182.786 1073.41 185.46 1072.89 188.282 1072.89Z" fill="#D56FAC" stroke="black" stroke-width="32"/>
<path d="M188.282 660.894H835.718C838.54 660.894 841.214 661.411 844.034 662.919C846.985 664.497 849.397 666.909 850.975 669.86C852.484 672.68 853 675.354 853 678.176V942.894H171V678.176C171 675.354 171.516 672.68 173.025 669.86C174.603 666.909 177.015 664.497 179.966 662.919C182.786 661.411 185.46 660.894 188.282 660.894Z" fill="#967ADC" stroke="black" stroke-width="32"/>
<path d="M402 575.894H272C271.448 575.894 271 576.342 271 576.894V656.894C271 657.447 271.448 657.894 272 657.894H402C402.552 657.894 403 657.447 403 656.894V576.894C403 576.342 402.552 575.894 402 575.894Z" fill="#967ADC" stroke="black" stroke-width="32"/>
<path d="M752 575.894H622C621.448 575.894 621 576.342 621 576.894V656.894C621 657.447 621.448 657.894 622 657.894H752C752.552 657.894 753 657.447 753 656.894V576.894C753 576.342 752.552 575.894 752 575.894Z" fill="#967ADC" stroke="black" stroke-width="32"/>
<path d="M754.305 174.727L1312.76 495.41C1315.19 496.808 1317.24 498.585 1318.9 501.305C1320.64 504.152 1321.5 507.463 1321.36 510.834C1321.23 514.055 1320.31 516.657 1318.88 519.133L1184.3 751.386L596.035 413.583L730.613 181.329C732.047 178.854 733.852 176.763 736.587 175.036C739.448 173.229 742.755 172.307 746.103 172.384C749.302 172.458 751.871 173.329 754.305 174.727Z" fill="#4FC0E9" stroke="black" stroke-width="32"/>
<path d="M978.566 209.154L866.599 144.909C866.124 144.636 865.511 144.806 865.231 145.29L824.62 215.32C824.339 215.803 824.498 216.416 824.973 216.689L936.94 280.934C937.416 281.207 938.029 281.037 938.309 280.553L978.92 210.524C979.2 210.04 979.042 209.427 978.566 209.154Z" fill="#4FC0E9" stroke="black" stroke-width="32"/>
<path d="M1281.68 384.154L1169.71 319.909C1169.23 319.636 1168.62 319.806 1168.34 320.29L1127.73 390.32C1127.45 390.803 1127.61 391.416 1128.08 391.689L1240.05 455.934C1240.52 456.207 1241.14 456.037 1241.42 455.553L1282.03 385.524C1282.31 385.04 1282.15 384.427 1281.68 384.154Z" fill="#4FC0E9" stroke="black" stroke-width="32"/>
</g>
<defs>
<clipPath id="clip0_2_316">
<rect width="1500" height="1500" fill="white"/>
</clipPath>
</defs>
</svg>
