<svg xmlns="http://www.w3.org/2000/svg" fill="none" viewBox="0 0 512 512">
    <path fill="#359DC4" stroke="#000" stroke-width="12.6031"
          d="M204.123 383.171h254.991c1.111 0 2.164.203 3.275.797 1.162.622 2.112 1.572 2.734 2.734.594 1.111.797 2.164.797 3.275v104.258H197.317V389.977c0-1.111.203-2.164.797-3.275.622-1.162 1.572-2.112 2.734-2.734 1.111-.594 2.164-.797 3.275-.797Zm84.173-33.526h-51.2c-.218 0-.394.176-.394.394v31.508c0 .217.176.394.394.394h51.2c.217 0 .393-.177.393-.394v-31.508c0-.218-.176-.394-.393-.394Zm137.845 0h-51.2c-.217 0-.393.176-.393.394v31.508c0 .217.176.394.393.394h51.2c.218 0 .394-.177.394-.394v-31.508c0-.218-.176-.394-.394-.394Z"/>
    <path fill="#D56FAC" stroke="#000" stroke-width="12.6031"
          d="M124.062 349.645H72.8616c-.2175 0-.3938.176-.3938.394v31.508c0 .217.1763.394.3938.394h51.2004c.217 0 .393-.177.393-.394v-31.508c0-.218-.176-.394-.393-.394Zm-89.2924 33.526H161.76c1.111 0 2.164.203 3.275.797 1.162.622 2.112 1.572 2.734 2.734.594 1.111.797 2.164.797 3.275v104.258H27.9631V389.977c0-1.111.2034-2.164.7974-3.275.6216-1.162 1.5715-2.112 2.7339-2.734 1.1106-.594 2.1638-.797 3.2752-.797Z"/>
    <path fill="#967ADC" stroke="#000" stroke-width="12.6031"
          d="M34.7696 220.906H289.76c1.111 0 2.164.203 3.275.797 1.162.622 2.112 1.572 2.734 2.734.594 1.111.797 2.164.797 3.275v104.259H27.9631V227.712c0-1.111.2034-2.164.7974-3.275.6216-1.162 1.5715-2.112 2.7339-2.734 1.1106-.594 2.1638-.797 3.2752-.797Zm84.1724-33.477H67.7415c-.2175 0-.3938.177-.3938.394v31.508c0 .217.1763.394.3938.394h51.2005c.217 0 .393-.177.393-.394v-31.508c0-.217-.176-.394-.393-.394Zm137.846 0h-51.2c-.218 0-.394.177-.394.394v31.508c0 .217.176.394.394.394h51.2c.217 0 .394-.177.394-.394v-31.508c0-.217-.177-.394-.394-.394Z"/>
    <path fill="#4FC0E9" stroke="#000" stroke-width="12.6031"
          d="M257.696 29.4309 477.64 155.731c.959.55 1.764 1.25 2.42 2.322.687 1.121 1.023 2.425.968 3.752-.052 1.269-.412 2.294-.977 3.269l-53.003 91.472-231.686-133.043 53.003-91.4717c.565-.975 1.276-1.7983 2.353-2.4786 1.127-.7119 2.429-1.0748 3.747-1.0444 1.26.029 2.272.3722 3.231.9226Z"/>
    <path fill="#4FC0E9" stroke="#000" stroke-width="12.6031"
          d="m346.02 42.9899-44.098-25.3027c-.187-.1075-.428-.0403-.539.1501l-15.994 27.5809c-.11.1904-.048.4319.139.5394l44.098 25.3028c.187.1075.429.0403.539-.1502l15.994-27.5809c.111-.1904.049-.4319-.139-.5394Zm119.379 68.9231-44.098-25.3027c-.187-.1075-.429-.0403-.539.1501l-15.995 27.5806c-.11.191-.048.432.14.54l44.097 25.302c.188.108.429.041.54-.15l15.994-27.581c.11-.19.048-.431-.139-.539Z"/>
</svg>
